<svg width="4001" height="4001" viewBox="0 0 4001 4001" fill="none" xmlns="http://www.w3.org/2000/svg">
<path fill-rule="evenodd" clip-rule="evenodd" d="M1886.16 2.15044C1791.35 7.99213 1678.36 22.9549 1600.9 39.9243C1580.13 44.4744 1555.59 49.5465 1546.36 51.1967C1502.65 59.0136 1356.05 103.891 1294.66 128.25C1277.35 135.117 1260.17 141.596 1256.47 142.647C1252.77 143.699 1236.3 150.661 1219.87 158.115C1203.45 165.571 1189.16 171.671 1188.13 171.671C1186.42 171.671 1163.78 182.331 1118.46 204.475C1059.24 233.413 982.65 276.422 935.47 307.237C922.501 315.708 911.344 322.64 910.679 322.64C910.014 322.64 901.75 328.09 892.311 334.751C882.872 341.413 866.918 352.499 856.858 359.389C762.782 423.807 663.614 507.66 575.203 597.55C530.698 642.799 516.942 657.789 473.68 708.189C449.087 736.84 409.227 787.071 389.571 814.179C350.071 868.658 316.81 917.92 295.31 953.786C288.055 965.891 278.855 980.983 274.868 987.326C249.481 1027.71 189.5 1144.7 166.824 1198.05C142.832 1254.51 116.242 1322.2 109.989 1342.73C108.231 1348.5 101.576 1368.79 95.1969 1387.82C81.7182 1428.02 57.3469 1514.25 52.9064 1537.45C51.2221 1546.25 47.5137 1563.59 44.6652 1575.99C37.5567 1606.94 27.4948 1658.18 24.7952 1677.17C4.41979 1820.56 0.478516 1872.9 0.478516 2000.08C0.478516 2117.99 2.9536 2157.19 17.3553 2267.42C26.8047 2339.75 29.6909 2356.43 44.4198 2423.88C56.3569 2478.55 59.8828 2492.91 69.9762 2527.97C75.2032 2546.12 81.6427 2569 84.2855 2578.8C91.1801 2604.37 110.96 2662 127.463 2704.61C135.281 2724.79 142.36 2743.61 143.195 2746.44C144.028 2749.27 149.418 2762.01 155.174 2774.75C160.93 2787.49 168.734 2805.46 172.518 2814.69C189.255 2855.5 254.199 2980.91 277.303 3017.03C282.098 3024.53 291.082 3039.15 297.269 3049.53C320.651 3088.76 375.05 3167.89 408.468 3211.28C438.297 3250.02 462.238 3278.98 508.082 3331.81C537.794 3366.05 619.971 3448.56 659.105 3483.46C723.816 3541.15 787.598 3592.36 844.244 3632.08C887.038 3662.09 909.613 3677.52 910.731 3677.52C911.367 3677.52 922.501 3684.45 935.47 3692.92C996.078 3732.51 1099.55 3788.62 1170.9 3820.6C1218.46 3841.91 1255.38 3857.85 1257.2 3857.85C1258.32 3857.85 1272.87 3863.3 1289.53 3869.97C1354.88 3896.13 1488.35 3936.86 1551.61 3949.95C1568.33 3953.42 1602.31 3960.45 1627.12 3965.58C1651.92 3970.7 1677.88 3975.51 1684.8 3976.25C1691.72 3976.99 1714.37 3979.9 1735.14 3982.71C1839.74 3996.86 1914.85 4001.28 2026.27 3999.83C2119.72 3998.61 2161.45 3995.83 2241.7 3985.48C2268.81 3981.99 2299.06 3978.25 2308.94 3977.17C2318.81 3976.1 2349.96 3970.47 2378.15 3964.65C2406.35 3958.83 2440.75 3951.74 2454.6 3948.89C2511.65 3937.14 2649.29 3894.84 2711.42 3869.97C2728.09 3863.3 2742.64 3857.85 2743.76 3857.85C2749.57 3857.85 2881.81 3797.07 2913.34 3779.91C2925.69 3773.18 2936.41 3767.68 2937.15 3767.68C2940.91 3767.68 3034.6 3713.06 3065.42 3692.9C3078.35 3684.44 3089.4 3677.52 3089.96 3677.52C3090.94 3677.52 3112.84 3662.62 3156.82 3632.04C3168.1 3624.19 3184.62 3612.06 3193.52 3605.09C3202.43 3598.12 3213.01 3590.1 3217.05 3587.28C3238.07 3572.55 3278.17 3539.31 3332.41 3491.65C3373.4 3455.63 3464.84 3364.79 3489.97 3335.11C3497.34 3326.42 3511.44 3310.03 3521.3 3298.69C3547.91 3268.13 3591.35 3213.79 3611.39 3186.02C3654.01 3126.94 3688.05 3076.31 3709.23 3040.5C3714.48 3031.64 3722.05 3019.19 3726.05 3012.84C3739.88 2990.94 3779.84 2917.09 3794.7 2885.98C3798.56 2877.91 3806.18 2862.34 3811.64 2851.38C3820.62 2833.35 3836.45 2797.37 3852.67 2758.07C3874.99 2704.02 3907.3 2613.54 3916.68 2578.8C3919.33 2569 3926.76 2542.6 3933.2 2520.15C3939.64 2497.69 3946.28 2472.08 3947.96 2463.23C3949.64 2454.38 3953.37 2436.9 3956.24 2424.38C3963.39 2393.25 3973.46 2342.03 3976.16 2322.99C3996.54 2179.6 4000.48 2127.26 4000.48 2000.08C4000.48 1872.9 3996.54 1820.56 3976.16 1677.17C3973.46 1658.18 3963.4 1606.94 3956.29 1575.99C3953.44 1563.59 3949.74 1546.25 3948.05 1537.45C3943.61 1514.25 3919.24 1428.02 3905.76 1387.82C3899.38 1368.79 3892.73 1348.5 3890.97 1342.73C3889.21 1336.97 3881.37 1315.74 3873.53 1295.56C3865.69 1275.37 3858.65 1256.72 3857.88 1254.1C3857.11 1251.48 3850.09 1234.96 3842.26 1217.4C3834.44 1199.84 3827.3 1183.11 3826.39 1180.23C3820.89 1162.79 3746.75 1020.19 3726.09 987.326C3722.1 980.983 3712.9 965.891 3705.65 953.786C3683.65 917.085 3653.29 872.136 3611.39 814.208C3589.14 783.454 3541.42 723.785 3517.79 697.175C3508.7 686.936 3495.77 672.015 3489.04 664.014C3467.65 638.557 3378.8 549.629 3341.85 516.695C3277.05 458.936 3213.32 407.777 3156.71 368.08C3113.92 338.068 3091.34 322.64 3090.23 322.64C3089.59 322.64 3078.46 315.708 3065.49 307.237C3017.23 275.722 2936.2 230.293 2878.3 202.288C2839.23 183.394 2817.3 173.205 2812.22 171.585C2809.34 170.664 2794.51 164.248 2779.26 157.326C2764.02 150.405 2749.39 144.129 2746.75 143.376C2744.12 142.626 2725.44 135.603 2705.25 127.772C2636.73 101.189 2512.52 63.2198 2455.64 51.4756C2306.98 20.7742 2222.32 8.69456 2108.06 1.88415C2065.87 -0.629915 1928.62 -0.466367 1886.16 2.15044ZM1898.75 23.0409C1771.09 29.5745 1630.77 50.8486 1512.8 81.5542C1446.72 98.7543 1434.94 102.157 1388 117.586C1275.81 154.462 1146.66 210.111 1057.64 259.931C1044.95 267.033 1030.79 274.804 1026.17 277.198C1021.56 279.593 1008.12 287.496 996.307 294.757C984.493 302.02 974.425 307.963 973.932 307.963C972.607 307.963 915.977 344.415 892.98 360.07C724.864 474.526 576.596 611.479 453.731 765.795C403.371 829.045 342.759 915.23 309.727 970.552C287.963 1007 278.402 1023.32 278.402 1024.02C278.402 1024.5 275.438 1029.88 271.816 1035.98C258.624 1058.21 227.495 1118.48 209.435 1156.75C107.111 1373.6 46.5404 1600.77 26.7837 1841.77C3.3878 2127.2 45.542 2429.1 145.649 2693.07C180.197 2784.18 227.772 2887.03 267.197 2955.86C273.36 2966.62 278.402 2975.8 278.402 2976.25C278.402 2976.7 289.383 2995.26 302.803 3017.5C372.011 3132.14 453.888 3241.77 541.257 3336.79C568.426 3366.34 633.538 3431.44 663.3 3458.81C751.906 3540.3 872.86 3631.37 970.589 3690.17C972.319 3691.21 984.762 3698.7 998.241 3706.81C1011.72 3714.92 1023.13 3721.55 1023.61 3721.55C1024.09 3721.55 1036.18 3728.18 1050.5 3736.28C1114.87 3772.71 1225.46 3823.57 1307.24 3854.34C1348.05 3869.69 1423.65 3894.83 1453.02 3902.82C1597.34 3942.05 1694.63 3959.95 1829.53 3972.08C2119.27 3998.14 2424.98 3956.14 2697.92 3852.76C2774.51 3823.74 2880.65 3775.13 2942.27 3740.82C2954.39 3734.08 2969.89 3725.45 2976.72 3721.65C2983.56 3717.84 2997.51 3709.66 3007.74 3703.46C3017.96 3697.27 3026.68 3692.2 3027.12 3692.2C3028.65 3692.2 3086.49 3654.56 3117.57 3633.34C3319.52 3495.43 3496.62 3318.16 3635.84 3114.53C3654.61 3087.08 3682.22 3044.75 3691.22 3029.61C3711.53 2995.47 3716.81 2986.47 3722.65 2975.98C3726.45 2969.15 3735.1 2953.65 3741.86 2941.54C3748.62 2929.44 3765.31 2896.88 3778.94 2869.2C3883.4 2657.16 3947.21 2432.81 3970.98 2194.04C3978.04 2123.1 3979.44 2091.12 3979.44 2000.08C3979.44 1944.23 3978.37 1892.88 3976.78 1872.18C3964.73 1715.69 3945.86 1607.13 3903.88 1452.82C3895.83 1423.23 3870.66 1347.66 3855.35 1307.09C3823.92 1223.83 3773.85 1114.98 3737.29 1050.43C3729.18 1036.12 3722.56 1024.03 3722.56 1023.55C3722.56 1023.08 3715.95 1011.9 3707.87 998.714C3699.8 985.525 3693.19 974.345 3693.19 973.869C3693.19 972.544 3657.31 917.022 3639.23 890.376C3528.54 727.184 3388.33 575.714 3235.2 453.875C3195.83 422.551 3155.82 392.944 3117.57 366.822C3085.83 345.147 3028.64 307.963 3027.05 307.963C3026.57 307.963 3015.39 301.358 3002.2 293.285C2989.01 285.212 2977.82 278.607 2977.35 278.607C2976.87 278.607 2964.77 271.967 2950.46 263.852C2888.4 228.653 2777.85 177.68 2697.92 147.404C2531.42 84.3429 2351.29 43.5266 2171.43 28.1088C2086.6 20.8371 1980.38 18.864 1898.75 23.0409ZM1912.38 54.4174C1676.93 65.4759 1456.09 115.774 1239.07 207.767C1191.25 228.039 1107.93 268.207 1071.27 288.664C1059.16 295.424 1043.84 303.96 1037.24 307.635C977.869 340.681 892.084 397.311 828.223 445.62C672.139 563.686 529.638 709.479 417.624 865.712C381.766 915.722 331.65 993.713 307.44 1037.18C303.763 1043.78 295.21 1059.09 288.428 1071.2C281.649 1083.31 264.967 1115.86 251.358 1143.54C153.143 1343.28 89.714 1558.16 65.6804 1772.58C47.3941 1935.69 47.3941 2064.47 65.6804 2227.58C89.714 2442 153.143 2656.88 251.358 2856.62C264.967 2884.3 281.649 2916.85 288.428 2928.96C295.21 2941.07 303.763 2956.38 307.44 2962.98C331.65 3006.45 381.766 3084.44 417.624 3134.45C500.388 3249.89 601.078 3361.29 709.49 3457.37C746.97 3490.59 764.951 3505.47 818.765 3547.79C842.125 3566.16 892.107 3601.43 931.828 3627.58C968.149 3651.48 1034.03 3692.2 1036.39 3692.2C1036.92 3692.2 1044.28 3696.27 1052.74 3701.24C1090.76 3723.59 1173.77 3764.5 1235.93 3791.53C1295.97 3817.64 1404.36 3856.46 1458.27 3871.16C1468.65 3873.99 1493.02 3880.61 1512.43 3885.87C1551.63 3896.5 1644.21 3915.83 1694.24 3923.84C1727.4 3929.15 1801.02 3937.78 1846.31 3941.67C2059.11 3959.94 2297.73 3937.96 2508.08 3880.72C2632.25 3846.93 2746.61 3803.45 2863.61 3745.55C2892.46 3731.28 2926.79 3713.43 2939.91 3705.9C2953.03 3698.36 2964.07 3692.2 2964.43 3692.2C2966.53 3692.2 3039.27 3647.26 3070.69 3626.56C3315.08 3465.55 3520.41 3251.45 3671.98 2999.61C3683.65 2980.23 3693.19 2964.07 3693.19 2963.7C3693.19 2963.33 3699.36 2952.3 3706.9 2939.18C3743.6 2875.3 3793.88 2766.35 3825.29 2682.59C3896.85 2491.74 3936.92 2295.26 3946.92 2086.05C3954.28 1932.15 3941.44 1767.96 3909.95 1613.22C3893.26 1531.23 3880.74 1483.42 3855.33 1404.59C3824.04 1307.55 3794.03 1233.49 3748.93 1142.04C3735.69 1115.18 3719.31 1083.31 3712.53 1071.2C3705.75 1059.09 3697.19 1043.78 3693.52 1037.18C3669.31 993.713 3619.19 915.722 3583.33 865.712C3471.08 709.148 3328.85 563.632 3172.73 445.632C3108.41 397.012 3023.09 340.685 2963.72 307.635C2957.11 303.96 2941.8 295.409 2929.69 288.63C2843.7 240.519 2710.68 183.165 2603.48 147.983C2558.67 133.278 2546.52 129.795 2477.67 111.941C2301.94 66.3755 2098.52 45.6737 1912.38 54.4174ZM1934.41 99.5175C1926.33 99.9222 1903.21 101.283 1883.02 102.541C1521.42 125.069 1176.41 249.378 883.541 462.66C856.617 482.27 799.392 526.359 791.249 533.769C788.942 535.868 781.391 542.295 774.469 548.048C706.715 604.371 603.31 707.753 547.971 774.501C542.234 781.42 537.003 787.553 536.346 788.13C530.131 793.582 479.902 859.157 451.22 899.26C284.116 1132.91 171.04 1405.38 125.334 1684.51C89.263 1904.81 89.2567 2094.84 125.311 2315.65C170.752 2593.95 284.275 2867.47 451.22 3100.9C479.902 3141 530.131 3206.58 536.346 3212.03C537.003 3212.61 542.241 3218.74 547.981 3225.66C604.091 3293.27 706.838 3395.98 774.469 3452.07C781.391 3457.81 787.526 3463.04 788.103 3463.7C788.68 3464.36 798.591 3472.45 810.127 3481.7C954.033 3596.95 1114.96 3691.93 1282.44 3760.45C1309.77 3771.63 1320.47 3775.66 1379.46 3796.97C1416.52 3810.36 1489.23 3831.89 1539.02 3844.24C1767.39 3900.84 1992.57 3915.33 2221.69 3888.18C2567.43 3847.22 2883.42 3718.11 3162.51 3503.77C3283.6 3410.78 3411.67 3282.75 3504.69 3161.71C3715.81 2887.01 3843.26 2579.2 3887.16 2238.07C3927.08 1927.86 3888.86 1613.98 3774.95 1316.52C3660.38 1017.34 3464.48 746.047 3210.76 535.195C3016.71 373.938 2788.49 251.651 2546.45 179.234C2410.94 138.692 2281.83 114.977 2133.92 103.468C2095.88 100.507 1965.9 97.9344 1934.41 99.5175ZM1936.67 155.733C1919.2 157.115 1907.16 158.97 1906.71 160.354C1906.29 161.625 1908.79 202.726 1912.26 251.687C1919.16 349.058 1918.89 359.758 1909.13 376.45C1901.73 389.111 1891.91 394.407 1873.84 395.491C1848.69 397.003 1835.86 387.022 1827.35 359.334C1825.27 352.57 1821.87 316.868 1817.78 258.688C1814.29 209.098 1811.13 167.55 1810.76 166.359C1810.03 164.021 1741.49 167.775 1738.97 170.291C1737.8 171.463 1741.39 232.075 1748.93 338.349C1750.08 354.484 1752.38 373.59 1754.06 380.81C1762.89 418.858 1788.88 445.515 1826.38 454.973C1843.27 459.232 1888.42 458.706 1908.72 454.013C1940.34 446.708 1968.69 427.702 1979.46 406.59C1991.97 382.08 1993.84 360.615 1989.25 294.333C1987.41 267.809 1984.92 229.595 1983.72 209.413C1982.51 189.231 1980.98 168.238 1980.32 162.759C1978.92 151.22 1983.81 152.009 1936.67 155.733ZM2119.24 164.29C2118.65 167.773 2115.31 193.268 2111.82 220.945C2093.21 368.602 2084.13 439.474 2083.29 443.441C2082.39 447.664 2083.94 448.081 2117.08 452.543C2136.19 455.114 2152.38 456.653 2153.07 455.965C2154.25 454.785 2159.43 416.482 2170.6 326.31C2173.28 304.687 2176.07 286.995 2176.8 286.995C2178.13 286.995 2181.94 297.135 2210.31 376.109C2232.96 439.161 2243.45 467.699 2244.18 468.24C2244.55 468.506 2262.92 471.029 2285.03 473.845L2325.21 478.963L2326.31 471.57C2326.91 467.502 2331.34 433.037 2336.15 394.98C2340.96 356.923 2348.89 295.12 2353.77 257.639C2358.65 220.159 2362.55 189.321 2362.44 189.112C2362.06 188.395 2300.48 180.058 2295.58 180.058C2290.92 180.058 2290.58 181.114 2288.19 202.598C2282.3 255.649 2270.24 346.888 2268.91 348.446C2268.12 349.376 2264.38 341.356 2260.6 330.623C2256.83 319.889 2247.12 292.708 2239.03 270.22C2230.94 247.732 2219.59 216.123 2213.81 199.977C2208.02 183.832 2202.69 169.922 2201.95 169.064C2200.71 167.615 2148.89 160.207 2129.1 158.649C2120.78 157.993 2120.27 158.285 2119.24 164.29ZM1931.05 175.239C1925.93 176.032 1925.66 176.667 1926.46 185.933C1931.67 245.455 1936.67 342.665 1935.17 355.141C1930.36 395.192 1904.68 417.002 1865.35 414.436C1836.18 412.53 1818.34 396.932 1808.89 365.054C1806.8 358.03 1803.63 325.546 1800.19 275.94C1797.21 233.008 1794.31 194.958 1793.76 191.383L1792.75 184.887L1776.53 185.857C1767.61 186.392 1759.69 187.43 1758.93 188.162C1757.17 189.86 1768.79 355.147 1771.85 371.915C1777.1 400.7 1794.08 422.941 1817.47 431.691C1853.46 445.15 1912.25 439.893 1940.99 420.645C1954.19 411.809 1965.92 394.405 1970.3 377.157C1974.29 361.42 1974.06 353.23 1966.7 244.534L1961.91 173.767L1949.21 174.082C1942.22 174.254 1934.05 174.776 1931.05 175.239ZM2135.92 183.058C2134.01 193.643 2105.21 422.714 2105.28 426.805C2105.35 430.795 2106.88 431.546 2117.42 432.743C2124.05 433.498 2131.13 434.572 2133.15 435.131C2135.17 435.691 2136.88 435.851 2136.95 435.484C2137.02 435.119 2142.99 389.771 2150.22 334.714C2157.44 279.654 2163.98 233.985 2164.73 233.228C2165.49 232.471 2169.2 232.731 2172.97 233.807C2180.62 235.994 2178.46 231.025 2210.18 319.495C2218.45 342.56 2231.42 378.415 2239.01 399.173C2246.6 419.932 2253.64 439.929 2254.66 443.609C2256.81 451.413 2257.03 451.491 2285.4 454.932C2302.53 457.009 2307.41 457.02 2308.67 454.98C2309.54 453.562 2311.49 441.369 2312.99 427.885C2314.49 414.4 2321.51 358.751 2328.6 304.224C2343.32 191.07 2344.32 203.563 2320.47 202.586L2308 202.074L2298 277.559C2292.51 319.076 2286.79 363.895 2285.3 377.157L2282.6 401.27H2274.28C2264.46 401.27 2267.13 406.718 2241.44 334.173C2211.56 249.766 2195.38 204.444 2191.68 194.735L2188.08 185.3L2162.39 182.01C2136.81 178.735 2136.71 178.739 2135.92 183.058ZM2502 228.792C2500.95 231.532 2498.93 237.963 2497.49 243.085C2496.06 248.208 2488.08 275.515 2479.75 303.769C2471.43 332.023 2457.74 378.73 2449.33 407.561C2440.92 436.392 2430.94 470.179 2427.17 482.647C2422.35 498.555 2421.03 505.573 2422.76 506.184C2434.63 510.371 2490.45 525.51 2491.53 524.839C2492.3 524.363 2493.54 521.369 2494.29 518.186C2495.58 512.654 2508.44 468.561 2539.4 363.528C2569.58 261.147 2573.57 246.921 2572.46 245.805C2571.82 245.172 2558.26 240.659 2542.31 235.778C2526.37 230.897 2511.2 226.206 2508.61 225.355C2504.82 224.116 2503.52 224.795 2502 228.792ZM2505.25 284.407C2499.66 303.706 2488.24 342.612 2479.89 370.867C2450.77 469.284 2444.74 490.672 2445.81 491.741C2446.4 492.332 2453.81 495.016 2462.28 497.704C2473.4 501.235 2478.03 501.915 2478.97 500.157C2479.68 498.818 2483.83 485.457 2488.18 470.465C2497.52 438.308 2519.32 364.155 2537.25 303.549C2544.28 279.786 2550.03 259.774 2550.03 259.076C2550.03 257.522 2523.67 249.24 2518.87 249.286C2516.22 249.313 2513.07 257.438 2505.25 284.407ZM1298.85 289.882C1271.49 300.676 1265.42 303.809 1265.97 306.862C1266.35 308.921 1274.17 330.061 1283.36 353.841C1311.14 425.687 1348.95 524.388 1362.02 559.161C1365.18 567.582 1368.49 574.917 1369.37 575.462C1370.89 576.399 1384.48 571.34 1485.53 532.22C1508.61 523.289 1529.61 515.347 1532.2 514.573C1534.8 513.799 1536.92 512.443 1536.92 511.56C1536.92 509.97 1516.16 456.351 1515.16 455.347C1514.5 454.69 1496.65 461.249 1454.38 477.682C1436.09 484.792 1419.74 490.321 1418.05 489.971C1415.11 489.361 1408.01 472.081 1371.73 377.157C1345.95 309.711 1333.08 276.508 1332.74 276.578C1332.56 276.613 1317.31 282.602 1298.85 289.882ZM2684.61 297.061C2683.36 307.094 2680.35 333.229 2677.94 355.141C2675.52 377.052 2668.86 436.025 2663.14 486.191C2657.42 536.357 2652.52 579.572 2652.25 582.222C2651.82 586.531 2655.71 588.907 2688.87 604.555L2725.98 622.065L2733.97 613.064C2738.36 608.113 2768.86 576.376 2801.74 542.536C2924.82 415.86 2938.08 402.038 2938.08 400.421C2938.08 398.744 2876.9 368.77 2873.48 368.77C2872.46 368.77 2859.44 381.674 2844.55 397.446C2829.65 413.216 2815.99 427.606 2814.19 429.422C2810.45 433.179 2734.3 513.942 2732.98 515.546C2731.74 517.041 2733.51 502.317 2746.31 404.506C2752.57 356.696 2757.69 316.53 2757.69 315.247C2757.69 313.964 2748.96 308.824 2738.29 303.828C2727.61 298.831 2711.69 291.161 2702.89 286.783L2686.89 278.823L2684.61 297.061ZM1306.19 307.271C1298.7 310.087 1291.85 313.093 1290.99 313.951C1290.12 314.811 1294.97 330.09 1301.75 347.909C1308.54 365.725 1317.14 388.322 1320.85 398.125C1327.1 414.641 1332.53 428.755 1366.76 517.586C1373.64 535.43 1380.19 550.338 1381.33 550.716C1382.46 551.093 1404.48 543.278 1430.27 533.348C1499.24 506.781 1510.62 502.34 1511.53 501.617C1512.24 501.059 1505.86 482.19 1504.33 480.29C1504.03 479.927 1495.91 482.456 1486.27 485.91C1470.8 491.456 1457.14 496.746 1415.93 513.143L1405.06 517.469L1395.25 491.871C1389.85 477.791 1378.39 447.872 1369.79 425.383C1361.19 402.895 1348.01 368.455 1340.5 348.85C1332.99 329.245 1325.86 310.609 1324.65 307.438C1323.45 304.268 1321.87 301.779 1321.15 301.911C1320.42 302.043 1313.69 304.455 1306.19 307.271ZM2702.18 314.92C2700.12 327.253 2673.99 556.322 2673.5 566.353C2673.23 571.809 2673.42 576.554 2673.92 576.896C2674.43 577.24 2685.25 582.279 2697.97 588.095L2721.11 598.667L2758.74 559.728C2779.44 538.311 2820.94 495.469 2850.97 464.524C2881 433.58 2905.88 407.393 2906.27 406.33C2906.89 404.627 2881.41 391.835 2877.4 391.835C2876.54 391.835 2862.77 405.751 2846.8 422.762C2830.82 439.774 2801.64 470.666 2781.95 491.414C2762.26 512.16 2740.6 535.019 2733.81 542.211L2721.46 555.287L2715.45 551.739C2711.83 549.6 2709.45 546.417 2709.45 543.723C2709.45 541.267 2715.04 496.415 2721.87 444.053C2738.1 319.596 2737.47 325.844 2734.2 323.317C2732.7 322.158 2725.13 318.291 2717.38 314.727L2703.29 308.248L2702.18 314.92ZM1026.63 429.074C1009.65 439.055 995.759 448.234 995.759 449.476C995.759 450.715 1002.84 463.4 1011.49 477.665C1020.14 491.93 1027.22 503.938 1027.22 504.353C1027.22 504.768 1032.28 513.353 1038.46 523.432C1044.64 533.509 1065.09 567.704 1083.91 599.418C1126.88 671.856 1142.62 697.741 1144.38 698.829C1145.14 699.301 1158.52 691.985 1174.11 682.577C1189.7 673.167 1223.9 652.744 1250.13 637.19C1276.35 621.638 1297.8 608.04 1297.8 606.971C1297.8 605.415 1269.87 558.467 1267.29 555.693C1266.92 555.284 1246.68 566.844 1222.33 581.379C1197.97 595.912 1177.38 607.805 1176.56 607.805C1175.74 607.805 1161.47 584.923 1144.84 556.958C1105.14 490.189 1058.37 411.861 1057.89 411.341C1057.68 411.113 1043.61 419.093 1026.63 429.074ZM1035.09 446.479C1027.3 451.149 1020.93 455.326 1020.93 455.76C1020.93 456.196 1035.21 480.439 1052.67 509.637C1070.13 538.835 1086.07 565.555 1088.09 569.014C1116.68 617.977 1149.42 671.894 1150.86 672.395C1151.87 672.745 1165.76 665.213 1181.73 655.66C1197.69 646.105 1213.12 637.028 1216 635.485C1220.32 633.181 1240.41 621.109 1267.96 604.272L1272.72 601.362L1267.06 591.477C1263.95 586.042 1261.19 581.295 1260.93 580.928C1260.67 580.561 1250.43 586.46 1238.18 594.033C1225.92 601.607 1215.55 607.805 1215.14 607.805C1214.72 607.805 1204.27 613.997 1191.9 621.566C1179.53 629.134 1169.2 635.03 1168.95 634.671C1168.02 633.39 1128.23 566.622 1077.65 481.473C1063.43 457.542 1051.23 437.968 1050.52 437.975C1049.82 437.981 1042.87 441.808 1035.09 446.479ZM3019.89 479.475C3012.58 489.512 3001.7 504.328 2995.7 512.401C2989.7 520.473 2971.74 545.006 2955.78 566.917C2939.81 588.829 2921.52 613.934 2915.11 622.707C2908.71 631.478 2896.11 648.819 2887.12 661.238C2878.12 673.657 2868.41 686.901 2865.54 690.669L2860.31 697.519L2875.5 708.751C2883.85 714.929 2894.65 722.815 2899.49 726.274C2904.34 729.734 2923.13 743.416 2941.26 756.678C2959.39 769.94 2981.6 786.132 2990.63 792.657L3007.03 804.523L3020.37 786.367C3041.82 757.15 3043.67 754.229 3041.56 752.793C3040.47 752.046 3021.01 737.886 2998.31 721.324L2957.06 691.212L2965.58 679.388C2970.27 672.886 2977.56 662.622 2981.79 656.581C2986.01 650.54 2990.26 645.585 2991.23 645.573C2992.2 645.558 2999.28 650.2 3006.96 655.889C3049.75 687.561 3067.32 699.989 3069.38 700.024C3071.73 700.064 3107.1 652.251 3105.63 651.018C3105.19 650.647 3088.31 638.276 3068.12 623.527C3047.94 608.778 3030.69 596.076 3029.8 595.3C3028.22 593.91 3054.51 555.385 3057.05 555.385C3057.77 555.385 3059.85 556.721 3061.67 558.352C3067.48 563.563 3140.43 616.119 3141.9 616.157C3143.5 616.196 3146.6 612.336 3165.97 586.145C3173.5 575.963 3179.34 567.396 3178.95 567.106C3168.98 559.705 3116.91 522.015 3113.62 519.815C3111.09 518.127 3103.83 512.833 3097.49 508.048C3080.8 495.461 3038.1 464.172 3035.45 462.581C3034.16 461.809 3027.45 469.1 3019.89 479.475ZM3023.63 506.634C3016.2 516.726 2999.44 539.607 2986.39 557.482C2973.33 575.357 2958.5 595.644 2953.43 602.563C2948.36 609.483 2937.32 624.58 2928.91 636.112C2920.49 647.644 2907.78 665.006 2900.67 674.695C2893.56 684.384 2887.77 692.877 2887.82 693.566C2887.86 694.256 2893.29 698.538 2899.88 703.08C2906.47 707.619 2926.02 721.787 2943.32 734.563C2960.63 747.339 2981.13 762.287 2988.88 767.783L3002.98 777.774L3009.38 768.942C3012.9 764.084 3015.52 759.4 3015.21 758.532C3014.63 756.932 2985.82 735.377 2951.08 710.548C2940.59 703.052 2931.96 696.131 2931.9 695.168C2931.77 693.214 2983.47 621.097 2986.21 619.405C2987.17 618.815 2993.01 622.04 2999.19 626.574C3005.38 631.105 3022.71 643.841 3037.71 654.876L3064.98 674.936L3071.76 667.057C3075.49 662.722 3078.56 658.179 3078.58 656.96C3078.6 655.74 3072.24 650.121 3064.45 644.47C3056.67 638.819 3041.3 627.551 3030.32 619.428C3019.33 611.305 3008.18 603.245 3005.53 601.515L3000.72 598.37L3019.3 573.208C3029.51 559.369 3041.06 543.572 3044.95 538.101L3052.03 528.156L3058.51 533.088C3062.07 535.801 3071.11 542.383 3078.61 547.713C3086.11 553.045 3102.61 564.986 3115.29 574.252L3138.32 591.098L3142.13 586.346C3150.33 576.097 3152.59 571.895 3150.77 570.312C3149.73 569.415 3139.91 562.227 3128.95 554.337C3107.93 539.2 3092.61 527.99 3059.29 503.351C3048.09 495.066 3038.52 488.287 3038.03 488.287C3037.54 488.287 3031.06 496.545 3023.63 506.634ZM1900.85 501C1849.53 504.825 1763.26 515.825 1720.09 524.044C1683.89 530.938 1603.85 550.722 1567.34 561.801C1359.68 624.812 1176.61 726.7 1008.34 872.902C977.28 899.892 899.904 977.241 872.904 1008.29C770.389 1126.2 691.14 1249.28 628.544 1387.82C576.571 1502.84 534.677 1644.17 516.562 1765.59C502.253 1861.5 499.692 1897.09 499.692 2000.08C499.692 2103.07 502.253 2138.66 516.562 2234.57C531.285 2333.26 562.824 2449.17 602.519 2550.49C624.005 2605.33 659.029 2678.68 690.129 2733.96C858.228 3032.78 1127.22 3268.75 1443.58 3394.91C1546.7 3436.03 1664.17 3468.31 1765.9 3483.48C1861.85 3497.78 1897.45 3500.34 2000.48 3500.34C2103.36 3500.34 2139.59 3497.74 2234.35 3483.56C2357.52 3465.14 2502.23 3422 2616.11 3369.78C2653.95 3352.42 2712.03 3323.18 2731.38 3311.75C2740.27 3306.49 2747.94 3302.19 2748.41 3302.19C2750.44 3302.19 2815.48 3261.51 2840.54 3244.57C2921.15 3190.09 2989.65 3133.31 3061.88 3061.11C3134.1 2988.9 3190.91 2920.43 3245.41 2839.85C3262.35 2814.8 3303.05 2749.78 3303.05 2747.75C3303.05 2747.28 3307.35 2739.61 3312.61 2730.72C3324.04 2711.39 3353.29 2653.32 3370.66 2615.49C3422.9 2501.65 3466.05 2357 3484.48 2233.87C3498.67 2139.14 3501.27 2102.93 3501.27 2000.08C3501.27 1897.09 3498.7 1861.5 3484.4 1765.59C3471.21 1677.19 3439.35 1556.02 3407.95 1474.83C3403.04 1462.15 3396.76 1445.78 3394 1438.46C3385.88 1416.99 3360.77 1362.28 3341.39 1323.86C3300.29 1242.39 3257.47 1173.6 3201.76 1099.56C3033 875.248 2805.98 702.436 2546.89 601.07C2415.61 549.707 2286.94 519.341 2134.72 503.797C2096.5 499.895 1940.68 498.031 1900.85 501ZM1918.67 518.88C1914.64 519.32 1898.12 520.693 1881.97 521.933C1786.03 529.292 1691.38 546.841 1577.83 578.316C1552.13 585.439 1480.61 610.892 1439.39 627.582C1395.57 645.325 1304.13 689.83 1266.34 711.813C1083.96 817.898 933.536 951.217 811.176 1115.23C783.617 1152.17 741.777 1214.26 727.816 1238.94C725.532 1242.98 716.848 1258.08 708.516 1272.49C686.805 1310.06 648.405 1388.76 629.737 1433.94C571.002 1576.12 536.737 1717.61 521.328 1881.61C517.597 1921.33 517.597 2078.83 521.328 2118.55C536.737 2282.55 571.002 2424.04 629.737 2566.22C648.405 2611.4 686.805 2690.1 708.516 2727.67C716.848 2742.09 725.532 2757.18 727.816 2761.22C734.024 2772.19 763.86 2818.25 779.436 2840.9C879.426 2986.31 1013.23 3120.06 1159.37 3220.67C1181.84 3236.14 1227.96 3266.01 1239.07 3272.3C1243.11 3274.58 1258.21 3283.26 1272.63 3291.59C1309.93 3313.14 1388.68 3351.52 1434.14 3370.32C1522.08 3406.68 1619.47 3436.41 1704.73 3452.93C1770.31 3465.64 1808.76 3471.4 1868.33 3477.44C1912.55 3481.92 2039.46 3483.76 2087.8 3480.63C2289.25 3467.58 2477.18 3417.74 2653.86 3330.49C2680.39 3317.39 2713.9 3299.87 2728.32 3291.56C2742.74 3283.25 2757.37 3274.84 2760.84 3272.88C2771.4 3266.88 2826.93 3230.97 2844.74 3218.61C2989.15 3118.42 3123.34 2983.89 3221.48 2840.9C3236.03 2819.7 3267.76 2770.66 3273.72 2760.18C3275.68 2756.71 3284.09 2742.09 3292.41 2727.67C3314.97 2688.54 3352.97 2610.4 3372.13 2563.73C3431.03 2420.25 3464.33 2281.75 3479.67 2116.45C3483.33 2076.99 3483.33 1923.18 3479.67 1883.71C3464.41 1719.28 3431.27 1580.91 3372.97 1438.14C3354.77 1393.58 3314.53 1310.84 3292.41 1272.49C3284.1 1258.08 3275.69 1243.45 3273.72 1239.99C3271.76 1236.53 3261.36 1220.02 3250.61 1203.3C3132.12 1018.85 2982.02 869.006 2795.44 748.893C2781.02 739.61 2765.92 730.147 2761.88 727.864C2757.85 725.58 2742.74 716.9 2728.32 708.571C2690.74 686.867 2612.02 648.481 2566.81 629.819C2428.79 572.841 2291.86 539.045 2132.62 522.662C2102.25 519.536 1939.12 516.653 1918.67 518.88ZM872.894 534.948C857.647 548.109 757.831 632.673 752.248 637.16C747.719 640.798 746.952 639.698 786.125 685.632C798.306 699.913 837.311 745.827 872.808 787.665L937.345 863.734L942.217 860.004C944.896 857.953 958.799 846.369 973.11 834.26C987.421 822.151 1016.31 797.74 1037.3 780.015C1058.29 762.289 1075.47 747.33 1075.47 746.773C1075.47 745.905 1046.33 710.829 1038.63 702.423C1036.43 700.02 1032.89 702.123 1017.45 714.998C1007.25 723.498 998.434 730.944 997.857 731.541C991.944 737.677 955.822 767.162 954.222 767.162C952.109 767.162 918.152 727.43 918.15 724.958C918.15 723.454 934.564 708.938 966.394 682.294C978.507 672.156 988.418 662.664 988.418 661.202C988.418 659.741 981.811 650.746 973.735 641.211C965.66 631.677 957.164 621.638 954.857 618.901L950.662 613.926L923.394 637.265C908.397 650.102 891.736 664.303 886.373 668.822L876.617 677.039L861.611 660.043C853.357 650.695 846.893 641.91 847.243 640.519C847.904 637.909 862.368 625.091 902.853 591.245L926.36 571.591L913.934 556.675C907.1 548.47 897.938 537.749 893.573 532.851L885.638 523.946L872.894 534.948ZM873.945 558.815C866.308 565.714 793.238 627.712 778.924 639.435C774.501 643.059 770.675 637.97 833.2 711.624C841.276 721.137 868.177 753.03 892.98 782.494C917.783 811.96 939.22 835.704 940.615 835.262C943.671 834.291 1048.2 746.37 1048.2 744.77C1048.2 742.665 1035.26 727.323 1033.49 727.323C1032.51 727.323 1030.46 728.503 1028.92 729.944C1015.39 742.638 953.261 794.42 951.558 794.42C950.798 794.42 944.332 787.356 937.188 778.722C930.041 770.085 923.033 761.83 921.613 760.375C920.191 758.917 912.497 749.803 904.512 740.12L889.995 722.511L898.303 715.218C902.874 711.207 919.595 697.095 935.461 683.86L964.307 659.793L957.857 651.651C954.308 647.173 950.589 643.004 949.592 642.39C948.596 641.773 932.053 654.734 912.833 671.191C893.611 687.647 876.646 701.402 875.136 701.754C873.011 702.249 820.202 643.044 818.828 638.626C818.656 638.077 832.204 626.075 848.932 611.953C865.659 597.831 883.927 582.39 889.527 577.636L899.709 568.998L891.468 559.713L883.226 550.428L873.945 558.815ZM1923.92 555.563C1776.17 563.877 1613.21 598.359 1485.53 648.328C1416.14 675.484 1337.77 712.844 1279.33 746.636C970.796 924.999 739.258 1208.94 626.536 1547.17C612.678 1588.75 593.448 1659.25 584.781 1700.24C573.469 1753.75 561.821 1836.44 557.02 1897.34C553.693 1939.51 553.697 2061.48 557.026 2101.78C564.953 2197.71 580.095 2289.23 600.39 2363.88C604.153 2377.71 607.931 2392.34 608.785 2396.38C611.241 2407.97 640 2493.8 649.181 2516.94C670.347 2570.27 678.861 2589.52 702.062 2636.46C715.74 2664.14 733.255 2697.63 740.98 2710.9C748.707 2724.16 757.433 2739.26 760.374 2744.45C771.721 2764.48 819.197 2834.92 840.2 2862.89C926.496 2977.82 1023.88 3075.13 1137.37 3159.84C1174.34 3187.43 1229.71 3224.65 1257.97 3240.91C1262 3243.23 1273.79 3250.08 1284.17 3256.14C1310.06 3271.25 1381.36 3307.42 1413.17 3321.59C1539.55 3377.86 1663.87 3413.11 1806.46 3433.1C2004.11 3460.82 2215.7 3444.6 2411.6 3386.72C2514.47 3356.32 2635.36 3304.27 2720.59 3253.68C2731.98 3246.92 2741.68 3241.39 2742.14 3241.39C2742.61 3241.39 2755.03 3233.69 2769.74 3224.29C2868.81 3160.95 2938.53 3104.88 3022.1 3021.35C3105.67 2937.81 3161.76 2868.11 3225.11 2769.07C3234.52 2754.36 3242.22 2741.95 3242.22 2741.48C3242.22 2741.02 3247.73 2731.35 3254.46 2720C3298 2646.56 3341.63 2549.63 3372.6 2457.51C3427.52 2294.19 3453.67 2111.6 3446.02 1945.04C3437.13 1751.72 3397.66 1581.78 3322.45 1412.98C3308.28 1381.18 3272.09 1309.91 3256.98 1284.02C3250.91 1273.64 3244.06 1261.86 3241.74 1257.84C3225.48 1229.58 3188.25 1174.23 3160.64 1137.27C3075.91 1023.83 2978.58 926.494 2863.59 840.206C2835.19 818.896 2764.36 771.163 2745.1 760.36C2739.91 757.448 2725.13 748.899 2712.25 741.363C2681.78 723.538 2593.97 680.197 2560.52 666.474C2435.96 615.366 2322.59 584.688 2189.26 566.003C2111.86 555.157 2005.49 550.971 1923.92 555.563ZM1953.28 601.708C1866.39 604.213 1792.88 613.169 1704.91 631.964C1642.27 645.348 1571.21 665.949 1519.09 685.831C1504.1 691.553 1489.47 697.005 1486.58 697.949C1469.68 703.474 1416.78 727.415 1372.98 749.371C1188.08 842.03 1030.87 970.833 897.005 1139.34C795.314 1267.35 708.703 1434.07 660.426 1594.75C644.007 1649.39 639.333 1668.13 627.858 1725.4C607.113 1828.9 602.503 1878.84 602.503 2000.08C602.503 2071.23 603.317 2099.79 606.203 2129.93C620.151 2275.58 656.697 2419.1 713.022 2549.44C767.195 2674.8 839.526 2793.34 920.923 2890.17C927.709 2898.25 935.201 2907.21 937.574 2910.09C969.785 2949.24 1049.78 3029.19 1090.15 3062.59C1093.03 3064.97 1102 3072.49 1110.07 3079.29C1277.68 3220.42 1496.02 3325.25 1716.26 3370.34C1803.79 3388.26 1869.44 3395.89 1952.24 3397.76L1999.43 3398.82L1987.89 3393.81C1959.74 3381.58 1869.83 3334.92 1830.58 3312.18C1686.37 3228.62 1578.16 3152.59 1468.75 3057.97C1414.24 3010.82 1338.92 2934.67 1292.42 2879.68C1268.99 2851.97 1210.78 2774.41 1207.42 2766.42C1206.94 2765.29 1201.29 2756.34 1194.86 2746.54C1149.59 2677.53 1106.82 2586.07 1083.08 2507.51C1062.89 2440.73 1052.83 2384.63 1048.19 2312.98C1046.99 2294.5 1046.17 2020.51 1046.14 1630.52L1046.1 978.939H1999.47H2952.84L2952.16 1666.17L2951.48 2353.39L2946.91 2386.94C2940.08 2437.05 2934.19 2464.52 2919.92 2512.75C2901.2 2576.07 2872.28 2644.1 2841.05 2698.32C2834.08 2710.42 2826.53 2723.63 2824.28 2727.67C2818.06 2738.82 2790.21 2781.01 2775.84 2801.06C2673.37 2943.98 2523.27 3084.61 2343.43 3206.18C2295.43 3238.62 2225.97 3282.28 2193.12 3300.64C2188.11 3303.45 2175.52 3310.52 2165.14 3316.37C2128.73 3336.87 2106.03 3348.71 2062.36 3369.97C2038.13 3381.77 2015 3393.07 2010.97 3395.08C2003.81 3398.64 2004.74 3398.71 2048.72 3397.8C2243.6 3393.79 2443.4 3343.12 2626.83 3251.21C2646.31 3241.45 2670.58 3228.64 2680.77 3222.75C2690.96 3216.85 2699.72 3212.03 2700.25 3212.03C2703.85 3212.03 2793.52 3153.68 2821.53 3133.11C2943.97 3043.18 3044.46 2942.62 3134.48 2819.93C3155.23 2791.65 3212.85 2703.15 3212.85 2699.57C3212.85 2699.06 3217.68 2690.32 3223.57 2680.13C3237.9 2655.39 3266.84 2597.47 3282.48 2562.26C3341.95 2428.31 3380.45 2279.66 3394.68 2129.03C3400.04 2072.31 3400.04 1927.85 3394.68 1871.13C3374.34 1655.83 3305.14 1449 3192.35 1266.37C3159.25 1212.77 3116.47 1153.19 3080.06 1109.99C3073.26 1101.92 3065.76 1092.95 3063.38 1090.07C3025.6 1044.15 2949.25 968.971 2894.03 923.309C2791.51 838.531 2684.08 772.203 2561.57 718.038C2401.09 647.087 2223.92 606.564 2056.06 602.412C2032.99 601.842 2010.81 601.15 2006.77 600.875C2002.73 600.601 1978.66 600.976 1953.28 601.708ZM3242.13 710.024C3216.37 733.955 3168.87 778.065 3136.58 808.05C3104.28 838.034 3077.6 863.51 3077.28 864.663C3076.97 865.816 3087.79 878.422 3101.32 892.674L3125.94 918.589L3159.43 887.682C3177.85 870.681 3196.53 853.359 3200.93 849.185L3208.93 841.598L3216.38 849.696C3227.79 862.101 3226.39 868.144 3199.23 923.374C3186.76 948.745 3176.26 970.071 3175.9 970.766C3174.73 972.988 3230.29 1031.54 3231.96 1029.85C3232.84 1028.95 3236.82 1020.67 3240.8 1011.44C3244.79 1002.21 3256.7 976.265 3267.28 953.777C3277.85 931.289 3288.02 907.484 3289.87 900.877C3293.06 889.456 3293.49 888.938 3298.66 890.393C3301.65 891.234 3312.59 891.892 3322.97 891.857C3339.52 891.798 3343.26 891.06 3353.2 885.883C3377.94 873.008 3395.52 847.264 3397.04 821.668C3398.47 797.654 3389.48 776.336 3366 748.1C3351.69 730.9 3291.92 666.534 3290.24 666.524C3289.54 666.52 3267.89 686.093 3242.13 710.024ZM3261.02 718.483C3239.08 738.973 3208.33 767.512 3181.64 792.158C3127.78 841.892 3103.79 864.512 3103.82 865.523C3103.84 866.202 3108.9 872.375 3115.08 879.238L3126.3 891.716L3135.71 883.432C3140.88 878.875 3157.76 863.353 3173.22 848.935C3188.67 834.52 3203.46 820.907 3206.08 818.689L3210.85 814.655L3221.81 826.91C3241.33 848.725 3242.22 850.392 3242.22 865.261C3242.22 879.07 3238.62 887.701 3204.18 956.35L3198.16 968.358L3210.99 982.56C3218.05 990.371 3224.42 996.957 3225.15 997.194C3225.89 997.433 3230 989.884 3234.28 980.419C3238.57 970.956 3248.84 948.745 3257.11 931.065C3274.13 894.652 3276.53 883.989 3269.82 874.571L3265.45 868.437L3271.58 862.569L3277.71 856.7L3288.81 864.217C3308.88 877.814 3325.67 878.974 3345.8 868.15C3357.41 861.912 3372.8 844.305 3376.53 833.002C3377.91 828.835 3378.62 820.102 3378.13 813.594C3376.48 792.047 3363.1 771.312 3323.17 728.396C3312.42 716.849 3301.05 704.338 3297.91 700.589C3294.76 696.839 3291.09 693.805 3289.75 693.845C3288.41 693.883 3275.48 704.971 3261.02 718.483ZM3262.71 765.547C3244.71 782.005 3229.89 796.538 3229.8 797.844C3229.49 802.288 3266.14 837.585 3275.92 842.261C3296.26 851.986 3320.14 846.673 3332.45 829.686C3349.13 806.67 3344.33 787.671 3313.15 753.334C3304.88 744.217 3297.51 736.505 3296.78 736.192C3296.06 735.882 3280.73 749.092 3262.71 765.547ZM620.477 772.928C608.772 787.631 599.189 800.415 599.18 801.338C599.17 802.258 628.997 826.77 665.46 855.806C701.924 884.843 730.895 908.887 729.842 909.239C727.768 909.929 711.317 906.738 608.764 885.744C555.048 874.747 541.223 872.543 539.545 874.709C538.392 876.198 527.619 889.642 515.604 904.588C503.589 919.532 492.911 932.872 491.874 934.231C490.559 935.957 510.459 953.018 557.766 990.725C595.044 1020.44 646.014 1061.08 671.031 1081.04C696.049 1101 717.433 1117.33 718.551 1117.33C720.793 1117.33 763.029 1065.7 762.773 1063.28C762.685 1062.44 751.593 1053.12 738.127 1042.56C680.751 997.556 628.441 955.423 629.112 954.752C629.511 954.356 643.027 956.713 659.153 959.992C766.421 981.801 796.831 988.054 807.474 990.484L819.503 993.231L843.709 963.051C857.024 946.455 868.416 931.572 869.028 929.979C869.76 928.07 846.704 908.419 801.328 872.281C661.416 760.853 642.933 746.194 642.352 746.194C642.024 746.194 632.181 758.225 620.477 772.928ZM3273.93 781.42L3254.26 799.792L3266.59 811.075C3280.71 823.987 3293.5 830.496 3301.06 828.611C3315.66 824.971 3325.46 810.918 3321.93 798.645C3319.34 789.615 3298.95 762.864 3294.77 763.008C3294.13 763.031 3284.76 771.316 3273.93 781.42ZM634.217 785.889L624.445 798.325L638.629 809.878C646.429 816.231 682.073 844.7 717.836 873.141C753.599 901.582 783.059 925.462 783.304 926.211C783.547 926.957 781.659 930.088 779.109 933.17C773.569 939.859 780.55 940.754 687.421 921.39C652.235 914.074 608.753 905.115 590.796 901.483C572.839 897.849 556.235 894.377 553.897 893.765C550.499 892.878 546.337 896.728 533.129 912.974L516.613 933.294L521.785 937.496C524.632 939.808 542.062 953.752 560.521 968.482C713.884 1090.87 715.434 1092.06 718.236 1089.74C719.774 1088.46 724.502 1082.69 728.741 1076.92L736.449 1066.42L730.127 1060.95C726.652 1057.94 690.574 1029.1 649.953 996.877L576.101 938.284L582.045 932.342L587.99 926.397L666.547 942.297C709.754 951.043 760.141 961.141 778.517 964.739L811.933 971.279L818.513 963.67C822.131 959.485 829.502 950.452 834.891 943.595L844.686 931.132L774.968 875.623C655.249 780.305 646.553 773.455 645.257 773.455C644.56 773.452 639.593 779.049 634.217 785.889ZM3477.14 964.502C3450.32 968.904 3423.26 988.492 3411.77 1011.83C3402.65 1030.35 3401.52 1051.4 3407.7 1087.71C3413.72 1123.03 3413.54 1132.09 3406.69 1140.23C3398.75 1149.67 3386.84 1149.34 3373.72 1139.33C3357.63 1127.05 3343.05 1090.98 3342.94 1063.19C3342.9 1054.77 3342.57 1054.24 3338.18 1055.61C3333.8 1056.97 3279.92 1083.34 3278.12 1085C3276.85 1086.17 3290.13 1123.18 3297.24 1138.3C3318.53 1183.55 3355.9 1216.94 3390.02 1221.2C3421.72 1225.16 3463.78 1202.13 3478.88 1172.56C3487.81 1155.05 3488.15 1130.18 3480.09 1081.03C3474.91 1049.35 3478.46 1040.26 3496.85 1038.19C3504.05 1037.38 3507.9 1038.17 3513.43 1041.58C3526.75 1049.81 3539.78 1075.43 3544.21 1102.13C3545.61 1110.49 3547.11 1117.33 3547.57 1117.33C3551.73 1117.33 3605.09 1089.65 3605.09 1087.49C3605.09 1073.46 3590.01 1037.8 3574.1 1014.23C3548.03 975.611 3514.44 958.384 3477.14 964.502ZM3478.71 983.212C3457.18 988.559 3435.44 1005 3427.54 1021.92C3421.28 1035.34 3421.06 1054.76 3426.8 1087.97C3434.02 1129.76 3431.35 1146.09 3415.29 1158.34C3404.61 1166.48 3386.86 1167.91 3373.96 1161.67C3353.59 1151.81 3337.26 1128.55 3329.21 1097.93C3327.17 1090.15 3325.19 1083.78 3324.82 1083.78C3324.45 1083.78 3318.86 1086.12 3312.39 1088.97C3302.03 1093.55 3300.8 1094.73 3301.99 1098.93C3309.14 1124.21 3329.53 1159.89 3346.37 1176.59C3352.93 1183.09 3364.03 1191.49 3371.05 1195.24C3381.97 1201.1 3385.93 1202.08 3398.65 1202.1C3411.17 1202.13 3415.65 1201.07 3427.26 1195.36C3459.13 1179.67 3471.59 1155.47 3466.59 1118.97C3465.37 1110.02 3462.99 1095.52 3461.32 1086.76C3454.08 1048.98 3460.13 1031.57 3484.06 1021.3C3499.99 1014.46 3525.48 1021.79 3536.63 1036.41C3544.35 1046.53 3554.56 1066.73 3558.08 1078.85C3561.6 1090.96 3561.82 1091 3577.73 1082.78L3583.9 1079.59L3580.02 1068.58C3573.3 1049.5 3569.26 1041.2 3559.7 1026.76C3537.78 993.686 3505.8 976.488 3478.71 983.212ZM1092.83 1673.5C1093.59 2375.38 1092.85 2327.59 1104 2394.28C1126.58 2529.41 1187.92 2666.57 1282 2792.36C1351.5 2885.29 1458.64 2993.73 1562.09 3075.87C1686.16 3174.37 1825.31 3262.49 1964.42 3330.64L2000.72 3348.42L2047.27 3325.13C2094.84 3301.32 2132.59 3280.71 2173.47 3256.23C2186.13 3248.64 2197.46 3242.05 2198.64 3241.58C2204.98 3239.04 2302.36 3175.99 2331.89 3155.31C2390.56 3114.19 2462.85 3058.39 2501.76 3024.18C2642.39 2900.53 2738.46 2786.17 2806.34 2661.62C2858.97 2565.06 2886.34 2480.88 2902.79 2364.92C2904.7 2351.41 2905.48 2187.39 2906.01 1686.08L2906.7 1025.07H1999.42H1092.14L1092.83 1673.5ZM1124.29 1692.38C1124.9 2270.32 1125.25 2326.07 1128.47 2348C1143.18 2448.28 1165.7 2522.51 1207.55 2608.7C1238.63 2672.7 1278.35 2735.56 1327.12 2797.91C1390.23 2878.61 1471.01 2959.93 1564.45 3036.86C1673.96 3127.02 1829.3 3226.8 1961.14 3291.66L2000.45 3311.01L2036.65 3293.08C2068.5 3277.3 2087.26 3267.32 2137.87 3239.21C2144.79 3235.37 2164.61 3223.59 2181.92 3213.04C2264.87 3162.49 2312.02 3130.76 2377.97 3081.13C2512.24 2980.06 2629.02 2863.7 2708.44 2751.86C2786.49 2641.94 2835.5 2533.54 2858.27 2420.49C2873.02 2347.24 2871.78 2410.09 2872.49 1700.76L2873.13 1060.71H1998.38H1123.64L1124.29 1692.38ZM1714.68 1081.15L1142.57 1081.69L1143.1 1440.76L1143.64 1799.84H1998.38H2853.13V1440.23V1080.63L2569.96 1080.63C2414.22 1080.62 2029.34 1080.86 1714.68 1081.15ZM434.668 1087.81C416.023 1091.03 398.192 1104.29 381.993 1126.99C373.804 1138.46 320.426 1239.41 320.372 1243.53C320.361 1244.32 336.634 1253.16 356.535 1263.16C376.437 1273.17 434.379 1302.48 485.297 1328.3C536.214 1354.11 578.696 1375.23 579.696 1375.23C582.255 1375.23 614.018 1311.58 612.281 1309.93C611.501 1309.19 588.917 1297.59 562.094 1284.17C535.27 1270.74 513.326 1259.17 513.326 1258.45C513.326 1257.72 515.702 1253.08 518.605 1248.13C527.109 1233.62 531.807 1233.32 612.344 1242.1C628.158 1243.82 642.547 1245.23 644.319 1245.23C646.396 1245.23 653.945 1232.45 665.51 1209.36C675.39 1189.63 683.182 1173.27 682.826 1173C680.279 1171.09 546.083 1162.12 538.169 1163.33L528.401 1164.83L527.025 1154.18C525.016 1138.63 517.162 1122.02 506.769 1111.34C489.668 1093.77 458.679 1083.66 434.668 1087.81ZM436.468 1106.75C421.71 1110.27 406.299 1123.95 392.097 1146.14C383.107 1160.19 344.69 1234.64 345.865 1235.74C346.545 1236.38 400.554 1263.92 516.162 1322.56C545.985 1337.69 571.027 1350.07 571.809 1350.07C572.594 1350.07 576.709 1343.05 580.957 1334.47L588.68 1318.87L538.417 1293.5C510.773 1279.55 488.156 1267.19 488.156 1266.02C488.156 1264.86 491.981 1256.94 496.657 1248.42C507.396 1228.86 518.266 1218.74 530.467 1216.94C535.537 1216.19 560.64 1217.8 587.316 1220.57L635.09 1225.54L644.669 1207.97C649.938 1198.31 653.926 1190.12 653.531 1189.77C653.135 1189.42 628.265 1187.14 598.261 1184.71C537.693 1179.8 531.168 1180.32 523.484 1190.71C519.067 1196.69 518.847 1196.74 511.543 1193.69C507.451 1191.98 503.807 1190.29 503.449 1189.93C503.088 1189.57 504.218 1185.23 505.962 1180.29C512.124 1162.84 509.213 1144.21 498.035 1129.6C490.01 1119.11 483.203 1114.82 465.387 1109.06C451.361 1104.52 447.199 1104.19 436.468 1106.75ZM1288.24 1115.84C1287.67 1117.34 1287.46 1212.87 1287.78 1328.15L1288.37 1537.74L1293.22 1551.37C1301.93 1575.82 1321.55 1600.68 1350.24 1623.64C1368.18 1637.98 1380.03 1645.62 1475.05 1704.04C1485.43 1710.43 1504.78 1722.42 1518.05 1730.69C1531.31 1738.97 1552.02 1751.84 1564.05 1759.29L1585.94 1772.84L1623.83 1751.55C1658.59 1732.02 1686.35 1716.01 1730.95 1689.83C1752.95 1676.91 1798.7 1647.73 1815.9 1635.65C1847.23 1613.64 1873.47 1582.91 1883.49 1556.52L1888.23 1544.03L1888.25 1329.1L1888.26 1114.18L1588.77 1113.65C1344.89 1113.22 1289.09 1113.62 1288.24 1115.84ZM2112.57 1115.85C2112 1117.34 2111.79 1213.35 2112.11 1329.2L2112.7 1539.83L2117.28 1551.97C2130.58 1587.12 2164.81 1621.11 2222.82 1656.75C2280.11 1691.95 2393.54 1762.09 2403.3 1768.34L2410.73 1773.11L2434.76 1759.49C2546.08 1696.41 2615.15 1654.39 2647.57 1630.04C2665.24 1616.77 2690.22 1590.91 2697.53 1578.33C2700.45 1573.3 2705 1563.06 2707.65 1555.56L2712.45 1541.93L2713.25 1367.9C2713.69 1272.18 2713.38 1175.7 2712.56 1153.5L2711.08 1113.13H2412.35C2169.91 1113.13 2113.42 1113.65 2112.57 1115.85ZM434.853 1146.05C424.349 1147.73 406.553 1167.96 394.01 1192.46C387.91 1204.37 383.237 1214.4 383.623 1214.74C385.456 1216.34 463.535 1255.72 464.885 1255.72C465.735 1255.72 471.289 1245.57 477.227 1233.18C488.705 1209.21 491.767 1195.54 489.318 1179.21C486.083 1157.64 460.311 1141.95 434.853 1146.05ZM1318.78 1212.73V1280.88H1588.31H1857.85V1212.73V1144.59H1588.31H1318.78V1212.73ZM2143.11 1201.18V1257.77L2230.68 1258.31L2318.26 1258.86L2318.89 1269.87L2319.52 1280.88H2231.32H2143.11V1292.19V1303.49L2181 1328.14L2218.89 1352.79L2284.3 1326.51C2340.07 1304.11 2349.61 1299.66 2348.96 1296.32C2346.42 1283.21 2348.2 1262.44 2352.76 1252.03C2359.65 1236.3 2378.68 1219.12 2394.22 1214.61C2438.2 1201.82 2480.73 1233.07 2480.79 1278.22C2480.81 1287.36 2479.46 1296.75 2477.41 1301.89C2475.53 1306.57 2474.35 1310.74 2474.78 1311.14C2475.22 1311.55 2493.98 1323.62 2516.47 1337.96C2538.97 1352.31 2564.35 1368.53 2572.88 1374.01L2588.38 1383.97L2603.29 1377.13C2611.49 1373.37 2632.62 1363.43 2650.25 1355.04L2682.3 1339.78L2681.71 1310.85L2681.13 1281.93L2595.65 1281.38L2510.18 1280.83V1269.28V1257.73L2595.65 1257.86L2681.13 1258V1201.82V1145.63L2673.22 1144.98C2668.86 1144.62 2662.73 1145.64 2659.58 1147.24C2656.43 1148.84 2618.24 1168.72 2574.7 1191.4C2531.17 1214.09 2495.08 1232.65 2494.51 1232.65C2493.94 1232.65 2491.2 1228.17 2488.43 1222.69L2483.39 1212.73L2544.18 1181.28C2577.61 1163.98 2606.52 1148.67 2608.43 1147.25C2611.2 1145.2 2599.36 1144.78 2550.17 1145.16L2488.42 1145.63L2473 1169.75C2464.51 1183.01 2456.75 1195.24 2455.75 1196.94C2453.76 1200.29 2449.35 1198.7 2439.19 1190.99L2434.28 1187.26L2446.16 1168.86C2452.69 1158.75 2458.54 1149.14 2459.16 1147.53C2460.11 1145.06 2452.54 1144.59 2411.82 1144.59C2385.16 1144.59 2363.35 1145.07 2363.35 1145.66C2363.35 1146.25 2368.53 1155.09 2374.86 1165.32C2381.18 1175.54 2386.89 1185.28 2387.53 1186.97C2388.3 1188.96 2385.63 1192.07 2379.9 1195.86L2371.08 1201.69L2367.65 1197.15C2365.77 1194.65 2357.69 1181.8 2349.7 1168.59L2335.18 1144.59H2274.38C2239.93 1144.59 2214.45 1145.37 2215.58 1146.4C2216.68 1147.4 2245.42 1162.6 2279.45 1180.17C2313.48 1197.74 2342.11 1212.85 2343.07 1213.74C2344.43 1215.02 2338.26 1230.68 2334.91 1234.44C2334.55 1234.85 2325.46 1230.47 2314.72 1224.72C2303.97 1218.97 2281.02 1206.96 2263.72 1198.02C2229.79 1180.5 2180.14 1154.71 2168.31 1148.45C2164.29 1146.33 2156.98 1144.59 2152.06 1144.59H2143.11V1201.18ZM439.912 1164.86C433.662 1167.28 424.69 1177.37 416.374 1191.31C411.707 1199.13 408.25 1205.87 408.692 1206.27C410.463 1207.9 457.158 1230.77 457.466 1230.16C469.114 1207.28 473.219 1192.06 470.574 1181.52C468.074 1171.56 449.141 1161.27 439.912 1164.86ZM3655.43 1227.62C3643.32 1232.81 3618.31 1243.55 3599.85 1251.49C3581.39 1259.43 3548.35 1273.61 3526.44 1283C3484.7 1300.88 3428.47 1325.11 3416.84 1330.23C3413.09 1331.88 3410.02 1334.08 3410.02 1335.13C3410.02 1336.17 3412.72 1343.02 3416.01 1350.36C3419.3 1357.7 3425.55 1371.96 3429.91 1382.05C3434.27 1392.14 3438.7 1400.4 3439.76 1400.4C3440.82 1400.4 3444.45 1398.97 3447.83 1397.23C3451.2 1395.48 3461.77 1390.87 3471.32 1386.97C3487.73 1380.28 3512.37 1369.79 3577.83 1341.64C3651.98 1309.75 3686.76 1294.85 3696.82 1290.68C3702.86 1288.17 3707.58 1285.63 3707.31 1285.02C3707.04 1284.42 3700.83 1269.79 3693.5 1252.52C3686.18 1235.25 3679.57 1220.46 3678.82 1219.66C3678.07 1218.85 3667.55 1222.44 3655.43 1227.62ZM2392.7 1241.56C2377.03 1252.22 2368.69 1270.55 2372.54 1285.86L2373.87 1291.15L2393.77 1282.87C2404.72 1278.31 2414.65 1274.59 2415.83 1274.59C2417.02 1274.59 2425.76 1279.79 2435.25 1286.16L2452.5 1297.72L2455.03 1291.92C2461.8 1276.37 2455.02 1255.85 2439.06 1243.66C2430.89 1237.41 2428.88 1236.85 2414.89 1236.85C2402.52 1236.85 2398.32 1237.74 2392.7 1241.56ZM3637.61 1255.67C3622.61 1262.33 3593.35 1275.07 3572.58 1283.99C3551.82 1292.91 3521.14 1306.1 3504.41 1313.31C3487.68 1320.51 3465.22 1330.06 3454.49 1334.53C3432.5 1343.69 3433.12 1342.22 3442.45 1363.31C3445.35 1369.87 3448.49 1375.23 3449.42 1375.23C3450.35 1375.23 3473.25 1365.69 3500.31 1354.02C3527.37 1342.35 3554.7 1330.68 3561.05 1328.08C3571.69 1323.73 3604.2 1309.74 3659.94 1285.54C3684.98 1274.66 3683.61 1277.71 3673.61 1255.19C3670.66 1248.56 3667.49 1243.23 3666.56 1243.35C3665.63 1243.47 3652.6 1249.01 3637.61 1255.67ZM2389.57 1313.65C2376.88 1318.88 2360.84 1325.28 2353.91 1327.89C2346.99 1330.49 2326.7 1338.51 2308.82 1345.71C2231.35 1376.89 2214.26 1383.76 2193.45 1392.07C2181.34 1396.9 2170.43 1401.26 2169.22 1401.74C2166.37 1402.88 2156.67 1379.64 2159.1 1377.5C2160.11 1376.61 2166.38 1373.74 2173.04 1371.11C2179.69 1368.48 2185.51 1365.72 2185.97 1364.97C2186.68 1363.83 2150.64 1339.99 2144.96 1337.84C2143.92 1337.45 2143.11 1369.22 2143.11 1410.71V1484.27H2175.46H2207.81L2214.14 1463.82C2217.62 1452.58 2222.65 1435.6 2225.3 1426.08L2230.13 1408.78H2257.94H2285.74V1401.75C2285.74 1397.88 2286.35 1388.92 2287.09 1381.83L2288.44 1368.94H2330.7H2372.96L2375.74 1387.29C2377.27 1397.38 2378.94 1406.34 2379.44 1407.19C2379.94 1408.04 2384.91 1406.43 2390.48 1403.61L2400.61 1398.48L2419.21 1422.71C2429.44 1436.03 2444.31 1455.33 2452.26 1465.6L2466.7 1484.27H2574.44C2678.15 1484.27 2682.18 1484.12 2682.18 1480.36C2682.18 1476.43 2671.42 1468.88 2610.86 1430.34C2574.85 1407.43 2533.69 1381.12 2511.84 1367.07C2501.79 1360.6 2483.9 1349.18 2472.08 1341.69C2460.27 1334.19 2442.27 1322.63 2432.09 1316C2421.91 1309.37 2413.37 1303.99 2413.11 1304.05C2412.85 1304.1 2402.26 1308.42 2389.57 1313.65ZM1319.23 1421.89L1319.83 1535.64L1326.39 1549.48C1330.49 1558.14 1338.3 1568.99 1347.21 1578.44C1371.68 1604.37 1369.12 1619.03 1369.12 1452.89V1308.14H1343.88H1318.64L1319.23 1421.89ZM1398.49 1464.3V1620.46L1403.21 1623.32C1405.8 1624.88 1417.18 1631.98 1428.5 1639.09C1439.82 1646.2 1449.49 1652.01 1450 1652.01C1450.51 1652.01 1450.92 1574.64 1450.92 1480.07V1308.14H1424.71H1398.49V1464.3ZM1480.8 1489.96L1481.34 1671.8L1506.19 1687.06C1519.86 1695.46 1531.42 1702.34 1531.89 1702.34C1532.35 1702.34 1532.73 1613.64 1532.73 1505.24V1308.14H1506.5H1480.27L1480.8 1489.96ZM1562.09 1514.7V1721.26L1574.11 1728.94L1586.13 1736.63L1599.8 1729.16L1613.48 1721.68L1614.02 1514.91L1614.55 1308.14H1588.32H1562.09V1514.7ZM1643.9 1506.49V1704.85L1651.76 1700.19C1656.09 1697.63 1667.89 1690.87 1677.98 1685.17L1696.34 1674.81V1491.47V1308.14H1670.12H1643.9V1506.49ZM1723.6 1482.32C1723.6 1627.63 1724.07 1656.4 1726.44 1655.83C1728 1655.46 1739.76 1648.55 1752.58 1640.48L1775.88 1625.8L1775.96 1466.97L1776.04 1308.14H1749.82H1723.6V1482.32ZM1805.41 1454.91C1805.41 1568.97 1805.98 1601.69 1807.96 1601.69C1809.37 1601.69 1817.89 1594.19 1826.9 1585.03C1838.51 1573.22 1845.24 1564.22 1850.04 1554.1L1856.8 1539.83L1857.41 1423.98L1858.01 1308.14H1831.71H1805.41V1454.91ZM2668.54 1376.35C2662.78 1379.13 2648.68 1385.71 2637.22 1390.97C2619.57 1399.07 2616.85 1400.96 2619.39 1403.32C2623.14 1406.8 2679.17 1442.33 2680.9 1442.33C2681.61 1442.33 2682.18 1426.29 2682.18 1406.69C2682.18 1387.08 2681.47 1371.1 2680.6 1371.17C2679.74 1371.24 2674.31 1373.57 2668.54 1376.35ZM329.769 1388.66C303.973 1394.55 271.979 1414.68 256.862 1434.53C232.479 1466.55 218.32 1516.93 223.47 1553.34C231.627 1611 268.94 1649.67 336.084 1670.06C353.116 1675.23 358.142 1675.79 387.474 1675.84C415.853 1675.88 421.559 1675.31 432.361 1671.3C461.722 1660.39 482.159 1644.83 498.28 1621.09C510.045 1603.78 516.3 1588.89 521.79 1565.14C525.639 1548.49 526.255 1540.99 525.378 1521.47C523.619 1482.3 513.03 1458.73 485.416 1432.51C468 1415.97 437.924 1399.65 410.547 1391.89C390.322 1386.16 348.145 1384.47 329.769 1388.66ZM2305.94 1391.48C2305.36 1393.5 2304.24 1402.47 2303.46 1411.4L2302.03 1427.65H2332.86H2363.69L2362.52 1421.89C2361.88 1418.72 2360.29 1409.75 2358.99 1401.97L2356.63 1387.82H2331.82C2309.98 1387.82 2306.87 1388.26 2305.94 1391.48ZM3720.46 1403.32C3707.19 1407.04 3695.22 1410.49 3693.85 1411C3692.08 1411.66 3694.03 1422.23 3700.61 1447.57C3705.7 1467.18 3709.88 1484.16 3709.9 1485.32C3709.93 1486.47 3694.14 1491.53 3674.82 1496.57C3655.51 1501.61 3616.71 1511.81 3588.62 1519.24C3560.52 1526.67 3526.72 1535.43 3513.5 1538.7C3500.28 1541.97 3489.02 1545.08 3488.48 1545.63C3487.39 1546.71 3505.18 1613.64 3507.06 1615.52C3508.19 1616.65 3523.74 1612.74 3647.04 1580.38C3723.6 1560.29 3728.81 1559 3729.64 1559.96C3730.05 1560.42 3734.41 1576.05 3739.33 1594.69C3744.26 1613.32 3749.01 1629.72 3749.87 1631.13C3752.17 1634.85 3808.55 1620.91 3808.55 1616.62C3808.55 1614.95 3802.55 1590.85 3795.22 1563.08C3787.88 1535.3 3774.97 1486.39 3766.52 1454.39C3754.51 1408.89 3750.45 1396.24 3747.87 1396.39C3746.06 1396.49 3733.72 1399.61 3720.46 1403.32ZM341.328 1405.9C281.232 1417.54 242.809 1468.64 242.759 1536.99C242.717 1594.45 276.078 1632.65 343.426 1652.29C360.753 1657.34 394.926 1659.4 412.644 1656.46C443.434 1651.35 473.685 1629.07 488.42 1600.64C525.54 1529.02 507.759 1459.64 443.509 1425.41C423.356 1414.67 391.885 1406.47 367.547 1405.62C356.011 1405.22 344.212 1405.34 341.328 1405.9ZM3727.8 1420.79C3713.34 1424.51 3713.66 1421.42 3723.79 1460.53C3728.82 1479.93 3732.96 1496.94 3732.99 1498.34C3733.02 1499.73 3729.5 1501.84 3725.18 1503.02C3720.85 1504.2 3689.94 1512.32 3656.48 1521.06C3623.03 1529.8 3577.25 1541.76 3554.75 1547.64C3532.26 1553.51 3513.23 1558.88 3512.47 1559.56C3511.14 1560.75 3518.02 1590.83 3520.09 1592.9C3521.04 1593.85 3548.14 1586.88 3682.01 1551.28C3712.2 1543.26 3738.33 1536.69 3740.08 1536.69C3743.82 1536.69 3743.99 1537.18 3754.03 1577.09C3758.31 1594.14 3762.45 1608.72 3763.23 1609.5C3764.52 1610.79 3783.18 1606.79 3785.17 1604.8C3786.37 1603.6 3779.78 1577.67 3744.64 1445.48C3737.86 1419.94 3736.85 1418.46 3727.8 1420.79ZM2386.91 1426.04C2384.01 1427.43 2382.55 1429.63 2383.16 1431.66C2383.71 1433.49 2387.62 1455.28 2391.84 1480.07C2396.07 1504.87 2400.18 1525.88 2400.99 1526.77C2402.25 1528.16 2429.46 1522.62 2456.26 1515.52L2464.23 1513.41L2460.46 1508.43C2407.5 1438.41 2395.79 1423.48 2393.91 1423.6C2392.68 1423.68 2389.53 1424.78 2386.91 1426.04ZM2244.8 1430.28C2242.35 1436.96 2235.4 1457.74 2235.4 1458.39C2235.4 1458.78 2245.18 1459.11 2257.14 1459.11H2278.87L2280.19 1448.1C2282.81 1426.26 2283.94 1427.65 2263.65 1427.65C2251.25 1427.65 2245.46 1428.46 2244.8 1430.28ZM332.246 1445.57C308.124 1450.37 289.515 1463.67 278.952 1483.67C248.044 1542.19 284.395 1599.98 363.086 1617.43C383.841 1622.04 415.201 1620.91 429.794 1615.05C464.084 1601.26 483.526 1569.98 481.439 1531.97C479.958 1505.01 468.164 1485.9 442.515 1468.91C423.4 1456.25 406.589 1449.54 384.2 1445.62C362.024 1441.75 351.554 1441.74 332.246 1445.57ZM2296.57 1470.52C2295.23 1481.4 2294.13 1493.2 2294.13 1496.73V1503.14H2335.06H2375.99L2374.73 1494.23C2374.03 1489.33 2372.13 1477.9 2370.51 1468.84C2368.88 1459.77 2367.55 1451.99 2367.55 1451.54C2367.55 1451.09 2352.12 1450.72 2333.27 1450.72H2299L2296.57 1470.52ZM334.887 1463.93C320.529 1468.01 306.255 1477.21 299.235 1486.9C285.98 1505.18 283.407 1532.25 293.089 1551.52C315.981 1597.07 408.172 1617.9 442.771 1585.33C466.356 1563.12 469.739 1524.11 450.14 1500.34C428.042 1473.54 367.902 1454.54 334.887 1463.93ZM2223.95 1496.32C2217.03 1523.02 2214.33 1519.91 2244.47 1519.91C2258.96 1519.91 2271.23 1519.21 2271.75 1518.34C2272.26 1517.47 2273.36 1508.99 2274.19 1499.47L2275.69 1482.17H2251.65H2227.61L2223.95 1496.32ZM2143.48 1523.62C2144.97 1544.19 2154.82 1561.73 2177.3 1583.84C2196.34 1602.57 2211.08 1613.3 2254.28 1639.92C2266.39 1647.38 2289.05 1661.34 2304.62 1670.95C2320.2 1680.55 2342.38 1694.22 2353.91 1701.34C2365.45 1708.45 2382.87 1719.23 2392.62 1725.3L2410.35 1736.34L2420.94 1730.95C2440.46 1721.01 2519.53 1675.69 2539.06 1663.25C2545.14 1659.37 2550.58 1656.21 2551.15 1656.21C2553.28 1656.21 2566.76 1646.71 2566.79 1645.2C2566.8 1644.33 2527.64 1643.62 2479.77 1643.62H2392.72V1631.04V1618.46H2502.06H2611.4L2625.55 1607.98C2644.37 1594.03 2667.59 1569.32 2673.31 1557.16C2678.96 1545.14 2682.06 1532.24 2682.13 1520.44L2682.18 1511.53H2585.69C2496.36 1511.53 2483.93 1512.22 2491.29 1516.76C2492.44 1517.47 2494.3 1519.78 2495.44 1521.9C2497.69 1526.1 2495.02 1526.89 2422.16 1543.43L2391.83 1550.32L2447.34 1551.37L2502.84 1552.41L2485.64 1565.53L2468.44 1578.66L2334.83 1578.11L2201.22 1577.58L2196.31 1564.47L2191.41 1551.37H2288.04H2384.66L2383.44 1545.08C2382.78 1541.62 2381.68 1535.95 2381.02 1532.49L2379.8 1526.2H2335.01H2290.22L2289.55 1531.97L2288.89 1537.74L2240.42 1538.3L2191.95 1538.86L2194.8 1527.88C2199.31 1510.5 2200.86 1511.53 2170.13 1511.53H2142.61L2143.48 1523.62ZM3809.24 1726.01C3800.97 1732.02 3772.37 1752.03 3745.68 1770.48C3719 1788.93 3688.16 1810.41 3677.16 1818.22L3657.16 1832.41L3621.16 1834.46C3601.37 1835.58 3575.37 1837.13 3563.4 1837.89L3541.64 1839.28L3543.02 1861.49C3543.78 1873.71 3544.97 1890.49 3545.66 1898.78L3546.92 1913.85L3556.6 1912.89C3561.93 1912.36 3587.73 1910.56 3613.93 1908.88L3661.58 1905.84L3703.08 1927C3725.9 1938.64 3766.51 1959.37 3793.32 1973.07C3820.13 1986.77 3842.78 1997.98 3843.66 1997.99C3844.54 1997.99 3844.65 1988.79 3843.9 1977.54C3843.15 1966.3 3842.44 1948.83 3842.32 1938.73L3842.11 1920.36L3798.59 1898.73C3774.65 1886.83 3750.05 1874.53 3743.93 1871.39L3732.79 1865.69L3757.56 1849.47C3771.19 1840.55 3793.96 1825.74 3808.16 1816.55L3833.98 1799.84L3832.85 1788.3C3832.23 1781.96 3831.18 1766.39 3830.53 1753.71C3829.14 1726.94 3827.63 1714.88 3825.67 1715C3824.91 1715.05 3817.52 1720 3809.24 1726.01ZM3789.68 1763.01C3779.87 1769.85 3762.88 1781.72 3751.92 1789.38C3678.12 1840.98 3662.53 1851.21 3657.61 1851.24C3654.68 1851.26 3632.94 1852.66 3609.29 1854.35C3585.64 1856.05 3565.48 1857.45 3564.49 1857.47C3562.44 1857.5 3563.48 1889.99 3565.6 1892.11C3566.37 1892.87 3589.23 1891.96 3616.42 1890.08L3665.84 1886.66L3744.68 1926.8C3788.05 1948.88 3823.81 1966.61 3824.16 1966.21C3824.51 1965.81 3824.32 1957.94 3823.73 1948.71L3822.67 1931.93L3758.98 1900.59C3723.95 1883.35 3695.31 1868.73 3695.34 1868.09C3695.37 1867.45 3706.94 1859.44 3721.04 1850.29C3735.14 1841.14 3755.64 1827.82 3766.6 1820.69C3777.56 1813.57 3792.41 1804.07 3799.6 1799.59L3812.66 1791.45L3812.71 1774.32C3812.75 1757.64 3811.6 1750.56 3808.85 1750.57C3808.11 1750.57 3799.48 1756.17 3789.68 1763.01ZM181.938 1766.68C170.962 1791.38 168.309 1806.19 168.294 1842.82C168.279 1881.72 170.656 1894.23 182.826 1919.38C195.203 1944.95 216.502 1966.8 241.439 1979.52C267.583 1992.85 313.097 2000.28 344.42 1996.32C412.997 1987.67 453.882 1944.94 466.192 1869.08C467.879 1858.67 469.265 1843.83 469.269 1836.08C469.28 1819.9 465.215 1781.42 463.142 1778.07C461.357 1775.19 395.864 1772.14 395.864 1774.95C395.864 1776.03 397.957 1782.55 400.514 1789.43C404.449 1800.01 405.175 1806.28 405.234 1830.24C405.295 1854.97 404.68 1860.19 400.38 1871.51C391.774 1894.18 373.819 1910.16 348.921 1917.31C330.538 1922.6 298.471 1920.89 281.02 1913.71C246.847 1899.63 229.727 1874.7 229.469 1838.63C229.318 1817.37 234.796 1797.46 245.764 1779.41C254.312 1765.35 257.076 1767.27 220.72 1762.05C208.03 1760.23 195.121 1758.25 192.036 1757.66C186.993 1756.7 185.968 1757.61 181.938 1766.68ZM197.036 1781.29C189.638 1795.46 187.308 1810.85 187.402 1844.92C187.488 1876.58 187.954 1880.8 192.875 1894.68C207.57 1936.11 234.375 1960.31 279.889 1973.23C293.112 1976.99 301.636 1977.87 324.548 1977.87C349.76 1977.87 354.534 1977.27 368.101 1972.4C407.637 1958.21 431.877 1929.96 444.393 1883.45C449.152 1865.77 450.849 1822.55 447.572 1802.46L445.947 1792.5H433.349C421.909 1792.5 420.869 1792.86 422.022 1796.5C422.721 1798.7 424.128 1807.9 425.148 1816.94C431.837 1876.23 403.507 1922.85 352.781 1936.06C336.755 1940.23 304.579 1940.19 288.311 1935.98C262.463 1929.28 239.509 1913.88 225.878 1894.07C209.655 1870.5 205.72 1832.23 216.197 1799.91C221.88 1782.38 221.429 1780.05 212.33 1779.92C210.022 1779.89 206.092 1779.31 203.595 1778.64C200.462 1777.8 198.429 1778.62 197.036 1781.29ZM1142.59 2060.72C1142.59 2308.68 1143.55 2332.34 1156.39 2398.74C1185.77 2550.61 1260.81 2694.69 1386.68 2840.9C1410.92 2869.06 1495.7 2953.74 1524.2 2978.27C1596.03 3040.08 1654.16 3084.61 1725.7 3132.6C1763.79 3158.16 1826.26 3197.3 1851.55 3211.47C1855.59 3213.73 1867.56 3220.46 1878.14 3226.43C1917.21 3248.47 1981.04 3281.23 1984.9 3281.23C1985.39 3281.23 1985.8 3185.47 1985.8 3068.44V2855.66L1980.03 2854.49C1967.88 2852.04 1951.68 2842.07 1942.09 2831.14L1932.31 2819.98L1701.06 2819.96L1469.8 2819.93V2784.33V2748.72L1425.23 2748.16L1380.66 2747.59L1380.1 2687.31L1379.54 2627.02H1424.67H1469.8V2556.78V2486.54H1424.71H1379.61V2426.78V2367.02H1424.73H1469.86L1469.31 2296.25L1468.75 2225.49L1424.18 2224.92L1379.61 2224.35V2164.64V2104.92H1424.71H1469.8V2069.28V2033.63H1505.36H1540.93L1541.55 2019.48L1542.17 2005.32L1629.21 2004.05C1715.33 2002.79 1741.76 2001.1 1838.97 1990.64C1885.82 1985.6 1936.02 1986.6 1962.49 1993.11C1965.5 1993.85 1971.98 1996.16 1976.88 1998.24L1985.8 2002.03V1924.52V1847.01H1564.19H1142.59V2060.72ZM2016.56 1848.41C2014.52 1850.46 2014.85 1999.64 2016.9 2000.91C2017.85 2001.5 2024.23 1999.73 2031.06 1996.99C2055.97 1986.97 2109.22 1984.43 2165.14 1990.58C2259.59 2000.97 2313.32 2004.27 2387.95 2004.27H2461.94V2018.95V2033.63H2497.59H2533.25V2069.23V2104.84L2577.83 2105.4L2622.4 2105.97L2622.96 2165.16L2623.51 2224.35L2578.91 2224.92L2534.3 2225.49L2533.75 2296.25L2533.2 2367.02H2578.35H2623.51L2622.96 2426.26L2622.4 2485.49L2577.83 2486.06L2533.25 2486.62V2556.82V2627.02H2578.38H2623.51L2622.95 2687.31L2622.4 2747.59L2577.83 2748.16L2533.25 2748.72V2784.33V2819.93H2301.73H2070.2L2062.66 2829.14C2053.37 2840.46 2038.06 2850.85 2027.97 2852.67C2023.81 2853.41 2019.23 2854.96 2017.78 2856.11C2015.72 2857.75 2015.16 2903 2015.16 3069.7C2015.16 3186.04 2015.52 3281.23 2015.96 3281.23C2023.09 3281.23 2130.08 3222.92 2188.09 3187.42C2396.72 3059.72 2565.56 2912.95 2678.41 2761.19C2694.42 2739.66 2734.62 2680.64 2734.62 2678.66C2734.62 2678.23 2739.88 2669.11 2746.32 2658.39C2789.31 2586.75 2824.98 2493.22 2841.42 2408.96C2853.13 2348.91 2852.79 2357.78 2853.61 2092.86L2854.37 1847.01H2436.16C2206.15 1847.01 2017.33 1847.64 2016.56 1848.41ZM1843.16 2021.07C1750.93 2031.31 1686.4 2035.73 1629.08 2035.73H1572.58V2382.42V2729.11L1611.91 2730.52C1641.42 2731.58 1667.73 2730.87 1717.31 2727.7C1852.93 2719.01 1925.96 2715.54 1936.93 2717.27C1950.85 2719.47 1963.25 2725.02 1975.83 2734.68L1985.8 2742.32V2391.49V2040.65L1981.08 2036.34C1962.2 2019.09 1911.55 2013.48 1843.16 2021.07ZM2082.28 2018.29C2048.37 2021.8 2027.75 2028.68 2019.41 2039.28C2015.18 2044.65 2015.16 2046.44 2015.16 2393.51C2015.16 2585.37 2015.62 2742.35 2016.19 2742.35C2016.76 2742.35 2021.71 2738.9 2027.2 2734.69C2040.16 2724.75 2051.18 2719.95 2066.63 2717.51C2078.87 2715.58 2165.58 2719.69 2301.47 2728.66C2336.96 2731 2363.73 2731.56 2392.2 2730.55L2432.58 2729.12L2432.05 2382.95L2431.52 2036.77L2363.35 2035.51C2297.1 2034.28 2256.76 2031.44 2158.84 2021.11C2121.82 2017.21 2100.36 2016.41 2082.28 2018.29ZM1501.78 2427.3L1502.31 2789.53L1729.29 2790.06L1956.27 2790.59L1958.64 2799.37C1964.45 2820.94 1991.61 2831.86 2019.92 2824C2030.27 2821.13 2041.68 2809.52 2044.52 2798.98L2046.79 2790.57H2274.29H2501.79V2427.83V2065.08H2481.81H2461.84L2461.99 2412.63L2462.13 2760.17L2396.49 2760.78C2348.42 2761.23 2312.31 2760.25 2261.62 2757.12C2223.55 2754.78 2166.19 2751.38 2134.14 2749.57C2059.67 2745.36 2060.8 2745.11 2032.86 2771.72C2003.38 2799.79 1995.09 2799.67 1967.63 2770.77C1942.83 2744.68 1946.57 2745.32 1850.21 2750.7C1807.69 2753.07 1751.66 2756.41 1725.7 2758.11C1699.74 2759.81 1647.6 2761.21 1609.81 2761.21L1541.12 2761.22V2413.15V2065.08H1521.19H1501.25L1501.78 2427.3ZM1788.63 2088.24C1744.21 2092.66 1699.76 2096.33 1689.85 2096.4C1679.94 2096.48 1660.31 2097.15 1646.24 2097.91L1620.65 2099.28L1621.26 2114.16L1621.87 2129.03L1655.43 2128.36C1686.11 2127.74 1777.32 2121.11 1836.87 2115.18C1850.14 2113.85 1877.27 2112.66 1897.17 2112.52L1933.34 2112.26L1933.35 2097.36L1933.36 2082.45L1920.46 2081.11C1897.09 2078.66 1870.35 2080.11 1788.63 2088.24ZM2077.56 2081.3L2067.6 2082.09L2067.61 2097.17L2067.61 2112.26L2104.84 2112.52C2125.31 2112.66 2162.83 2114.75 2188.21 2117.17C2253.83 2123.4 2313.33 2127.67 2349.19 2128.73L2380.13 2129.65V2114.36V2099.08L2345 2097.84C2325.67 2097.17 2267.39 2092.79 2215.48 2088.12C2128.6 2080.31 2104.98 2079.14 2077.56 2081.3ZM1411.07 2165.73V2195.08H1440.44H1469.8V2165.73V2136.37H1440.44H1411.07V2165.73ZM2533.25 2165.73V2195.08H2562.62H2591.98V2165.73V2136.37H2562.62H2533.25V2165.73ZM1791.77 2145.93C1753.7 2149.73 1708.4 2153.4 1691.09 2154.1C1673.79 2154.8 1650.9 2155.9 1640.23 2156.55L1620.82 2157.73V2172.21V2186.7H1649.93C1679.63 2186.7 1758.7 2181.18 1819.04 2174.89C1837.5 2172.97 1870.77 2171.3 1892.97 2171.18L1933.34 2170.97L1933.35 2156.04L1933.36 2141.12L1925.49 2139.82C1908.58 2137.02 1857.95 2139.34 1791.77 2145.93ZM2073.37 2139.97C2067.69 2140.83 2067.6 2141.08 2067.61 2155.91L2067.62 2170.97L2106.94 2171.15C2129.51 2171.25 2167.25 2173.28 2195.55 2175.92C2222.66 2178.44 2255.22 2181.47 2267.91 2182.65C2280.6 2183.82 2311.05 2185.36 2335.56 2186.06L2380.13 2187.34V2172.53V2157.72L2362.83 2156.55C2353.31 2155.92 2331.61 2154.88 2314.61 2154.26C2297.6 2153.64 2249.12 2149.83 2206.87 2145.8C2137.15 2139.15 2091.87 2137.17 2073.37 2139.97ZM1799.12 2247.61C1767.39 2250.83 1715.48 2254.55 1683.75 2255.88C1652.03 2257.21 1624.89 2258.68 1623.45 2259.13C1621.67 2259.69 1620.82 2264.78 1620.82 2274.88V2289.81L1655.96 2288.46C1707.35 2286.49 1752.6 2283.46 1801.21 2278.72C1824.86 2276.42 1864.27 2273.98 1888.78 2273.31L1933.36 2272.08V2257.92C1933.36 2246.94 1932.61 2243.47 1930.04 2242.49C1922.04 2239.42 1853.48 2242.1 1799.12 2247.61ZM2071.27 2242.66C2068.22 2243.45 2067.6 2246.07 2067.6 2258.14V2272.67L2098.54 2272.7C2129.37 2272.73 2148.54 2273.96 2210.23 2279.85C2245.97 2283.26 2296.15 2286.44 2347.1 2288.53L2380.13 2289.88V2273.93V2257.99L2367.02 2257.97C2334.49 2257.95 2258.32 2253.15 2199.74 2247.45C2141.37 2241.76 2083.02 2239.59 2071.27 2242.66ZM1871.48 2299.29C1866.87 2299.71 1828.17 2303.26 1785.48 2307.19C1742.8 2311.11 1689.14 2314.85 1666.25 2315.5C1643.36 2316.15 1623.78 2317.22 1622.73 2317.87C1620.45 2319.27 1620.15 2345.44 1622.4 2346.65C1623.26 2347.11 1645.68 2346.74 1672.21 2345.82C1718.81 2344.21 1757.77 2341.42 1830.44 2334.47C1849.39 2332.66 1880.31 2330.99 1899.13 2330.75L1933.35 2330.33L1933.36 2315.44L1933.36 2300.56L1912.91 2299.2C1892.48 2297.85 1887.27 2297.86 1871.48 2299.29ZM2082.81 2299.25L2067.6 2300.11V2315.22L2067.6 2330.33L2101.68 2330.74C2120.43 2330.97 2161.73 2333.53 2193.45 2336.43C2257.43 2342.29 2307.77 2345.56 2351.29 2346.68L2380.13 2347.43V2332.38V2317.34L2357.78 2315.97C2345.49 2315.22 2325.73 2314.6 2313.87 2314.6C2302.01 2314.6 2258.03 2311.33 2216.14 2307.34C2134.74 2299.58 2106.98 2297.9 2082.81 2299.25ZM3523.45 2341.34C3517.23 2365.26 3507.57 2401.95 3501.98 2422.86C3496.4 2443.77 3491.83 2462.22 3491.83 2463.86C3491.83 2465.96 3506.53 2470.99 3541.64 2480.88C3598.88 2497.01 3651.61 2511.7 3652.26 2511.7C3652.51 2511.7 3653.28 2501.09 3653.97 2488.11C3655.45 2460.38 3660.71 2440.45 3670.2 2426.66C3685.96 2403.77 3714.59 2404.34 3730.54 2427.88C3734.97 2434.41 3735.4 2437.01 3734.7 2452.99C3733.77 2474.3 3729.09 2486.21 3712.62 2509.16C3706.44 2517.76 3701.88 2525.28 3702.48 2525.88C3703.89 2527.29 3762.66 2545.16 3766.04 2545.21C3771.55 2545.29 3791.27 2497.06 3797.14 2469.19C3805.37 2430.09 3796.95 2392.12 3774.7 2368C3755.43 2347.1 3729.28 2336.79 3695.29 2336.68C3676.92 2336.63 3671 2337.47 3659.63 2341.75C3634.48 2351.23 3611.59 2380.84 3605.04 2412.37C3603.75 2418.57 3602.16 2423.63 3601.5 2423.63C3598.59 2423.63 3570.32 2414.7 3568.86 2413.32C3566.94 2411.51 3570.4 2395.97 3583.25 2348.64C3588.44 2329.55 3591.93 2313.23 3591.02 2312.37C3589.21 2310.67 3541.98 2297.83 3537.52 2297.83C3535.7 2297.83 3530.94 2312.53 3523.45 2341.34ZM461.936 2313.1C457.322 2314.19 429.477 2321.48 400.059 2329.31C334.629 2346.7 243.363 2370.83 212.59 2378.88C200.042 2382.16 189.366 2385.91 188.867 2387.21C188.065 2389.29 203.996 2451.79 206.259 2455.45C206.74 2456.22 219.157 2453.61 233.852 2449.64C286.828 2435.32 318.821 2427.6 321.257 2428.53C322.622 2429.05 324.753 2433.59 325.991 2438.62C333.439 2468.85 345.416 2514.39 346.096 2515.07C346.719 2515.69 392.08 2503.95 403.486 2500.22C405.087 2499.69 402.503 2486.52 395.587 2459.96C389.934 2438.25 384.77 2418.07 384.111 2415.12C382.937 2409.86 383.344 2409.65 405.622 2404.26C418.11 2401.24 428.602 2399.05 428.938 2399.38C429.441 2399.89 443.512 2450.61 452.325 2483.71L454.643 2492.41L467.728 2488.58C474.926 2486.47 488.439 2482.73 497.756 2480.27L514.7 2475.79L501.418 2426.12C494.115 2398.81 484.265 2361.83 479.53 2343.96C474.796 2326.08 470.788 2311.38 470.624 2311.28C470.461 2311.19 466.551 2312.01 461.936 2313.1ZM3547.81 2322.46C3547.32 2323.33 3545.75 2329.23 3544.32 2335.57C3542.89 2341.91 3535.68 2369.83 3528.31 2397.61C3520.93 2425.38 3514.9 2449.46 3514.9 2451.11C3514.9 2453.12 3521.01 2455.76 3533.25 2459.05C3543.35 2461.76 3569.52 2469.06 3591.42 2475.26C3613.31 2481.46 3631.82 2486.54 3632.55 2486.54C3633.28 2486.54 3634.51 2480.36 3635.29 2472.8C3638.14 2444.99 3651.37 2414.75 3665.76 2403.14C3686.91 2386.09 3718.63 2387.98 3738.99 2407.49C3749.59 2417.65 3752.39 2424.8 3753.52 2444.53C3754.81 2467.29 3750.49 2484.97 3739.27 2502.86C3733.8 2511.59 3731.88 2516.33 3733.59 2516.87C3735.02 2517.32 3741.08 2519.05 3747.06 2520.72L3757.93 2523.74L3762.56 2513C3777.72 2477.82 3780.12 2467.93 3780.18 2440.41C3780.23 2416.35 3779.78 2413.22 3774.66 2402.3C3759.88 2370.78 3727.17 2352.69 3688.99 2354.93C3652.01 2357.1 3629.66 2381.46 3622.11 2427.81L3618.84 2447.94L3592.56 2440.71C3578.11 2436.73 3561.33 2432.14 3555.28 2430.5C3548.92 2428.79 3544.26 2426.34 3544.26 2424.71C3544.26 2423.16 3549.93 2400.73 3556.85 2374.87C3563.77 2349.02 3569.44 2327.28 3569.44 2326.57C3569.44 2325.23 3555.58 2320.92 3551.21 2320.9C3549.83 2320.9 3548.3 2321.6 3547.81 2322.46ZM433.62 2340.13C424.967 2342.46 392.875 2350.97 362.303 2359.05C264.56 2384.88 212.348 2398.92 211.65 2399.56C211.277 2399.9 213.039 2407.85 215.568 2417.21C219.251 2430.86 220.846 2434.04 223.589 2433.2C244.491 2426.84 328.739 2404.76 332.12 2404.76C335.868 2404.76 337.112 2406.99 340.04 2418.92C341.951 2426.7 347.153 2446.28 351.6 2462.43C360.443 2494.54 358.8 2492.72 375.203 2488.47L382.859 2486.49L375.673 2458.73C371.721 2443.46 366.488 2423.64 364.042 2414.68C361.599 2405.72 360.007 2397.97 360.506 2397.48C361.68 2396.3 438.085 2375.41 441.211 2375.41C442.515 2375.41 444.166 2378 444.879 2381.17C448.168 2395.8 466.958 2466.05 467.809 2466.9C468.732 2467.82 488.298 2463.62 490.077 2462.12C490.555 2461.71 483.476 2433.08 474.345 2398.5C455.472 2327.02 459.715 2333.1 433.62 2340.13ZM1412.47 2397.77C1411.7 2398.54 1411.07 2411.75 1411.07 2427.13V2455.09H1440.44H1469.8V2425.73V2396.38H1441.84C1426.45 2396.38 1413.24 2397.01 1412.47 2397.77ZM2533.25 2425.67V2455.09H2562.68H2592.1L2591.52 2426.26L2590.93 2397.42L2562.09 2396.84L2533.25 2396.26V2425.67ZM1849.46 2403.05C1755.36 2411.91 1709.97 2415.43 1677.08 2416.4C1655.94 2417.03 1634.64 2418.03 1629.74 2418.62L1620.82 2419.7V2434.57V2449.44L1663.3 2448.15C1703.52 2446.93 1784.04 2440.97 1825.35 2436.16C1835.74 2434.95 1864.28 2433.76 1888.78 2433.51L1933.33 2433.07L1933.34 2418.17L1933.36 2403.26L1920.46 2401.92C1903.97 2400.19 1874.85 2400.66 1849.46 2403.05ZM2076.51 2402.1L2067.6 2402.91L2067.61 2417.99L2067.62 2433.07L2110.75 2433.42C2134.47 2433.62 2163.49 2434.81 2175.24 2436.07C2225.75 2441.48 2298.25 2446.85 2337.66 2448.11L2380.13 2449.46V2434.58V2419.7L2371.22 2418.62C2366.31 2418.03 2345.49 2417.04 2324.93 2416.44C2292.54 2415.49 2255.31 2412.59 2148.23 2402.71C2126.01 2400.66 2095.44 2400.4 2076.51 2402.1ZM1850.5 2461.71C1769.68 2469.61 1711.08 2474.28 1681.65 2475.17C1662.62 2475.75 1641.15 2476.73 1633.93 2477.35L1620.82 2478.48V2493.32V2508.16L1665.4 2506.84C1689.91 2506.11 1731.21 2503.61 1757.16 2501.28C1837.88 2494.03 1895.9 2490.32 1915 2491.19L1933.36 2492.02V2477V2461.98L1919.2 2460.65C1901.15 2458.94 1874.58 2459.35 1850.5 2461.71ZM2072.32 2460.76C2067.95 2461.6 2067.6 2462.77 2067.61 2476.73L2067.62 2491.78L2109.04 2492.05C2135.09 2492.21 2178.84 2494.71 2227.01 2498.78C2269.12 2502.34 2320.8 2505.9 2341.85 2506.69L2380.13 2508.12V2492.41V2476.7L2335.56 2475.26C2296.77 2474.01 2263.7 2471.48 2154.52 2461.42C2131.94 2459.34 2081.8 2458.93 2072.32 2460.76ZM1788.63 2569.46C1749.98 2573.29 1700.43 2577 1678.51 2577.7C1656.59 2578.41 1634.64 2579.47 1629.74 2580.07L1620.82 2581.15V2596.03V2610.92L1663.3 2609.55C1699.76 2608.38 1760.76 2603.82 1849.46 2595.65C1861.57 2594.53 1885.4 2593.58 1902.42 2593.55L1933.36 2593.48V2579.04C1933.36 2565.85 1932.95 2564.5 1928.64 2563.34C1916.86 2560.19 1854.81 2562.9 1788.63 2569.46ZM2071.27 2563.47C2068.23 2564.26 2067.6 2566.87 2067.6 2578.65V2592.87L2113.22 2594.1C2138.31 2594.78 2166.87 2596.31 2176.67 2597.5C2212.66 2601.85 2298.41 2608.23 2338.71 2609.55L2380.13 2610.91V2596.03V2581.15L2371.22 2580.07C2366.31 2579.48 2345.3 2578.46 2324.51 2577.82C2303.73 2577.18 2252.46 2573.36 2210.59 2569.34C2140.82 2562.63 2083.68 2560.23 2071.27 2563.47ZM445.156 2577.56C377.018 2593.25 324.216 2637.38 310.759 2689.89C305.15 2711.78 307.39 2746.79 315.851 2769.49C335.161 2821.27 371.625 2856.86 416.051 2867.28C435.856 2871.93 471.199 2870.39 491.302 2864.02C541.59 2848.06 581.353 2817.55 599.501 2780.99C625.576 2728.48 609.399 2654.6 562.045 2609.94C545.33 2594.18 533.204 2586.65 515.008 2580.75C497.752 2575.16 462.576 2573.55 445.156 2577.56ZM3448.19 2587.99C3416.75 2621.23 3400.75 2666.23 3407.84 2701.46C3409.23 2708.38 3413.8 2721.12 3417.98 2729.77C3440.45 2776.2 3518.66 2825.65 3583.73 2834.55C3633.21 2841.33 3672.01 2815.24 3689.27 2763.58C3692.75 2753.17 3693.9 2744.87 3693.84 2730.48C3693.77 2713.41 3693.03 2709.71 3687.15 2697.15C3673.88 2668.81 3640.4 2643.75 3603 2634.19C3567.03 2624.99 3531.71 2640.02 3511.99 2672.92C3502.21 2689.23 3497.39 2705.07 3498.69 2716.59L3499.75 2726.01L3489.61 2716.02C3462.54 2689.36 3465.08 2660.25 3497.34 2627.54L3512.34 2612.33L3492.12 2598.17C3470.2 2582.81 3460.97 2576.7 3459.69 2576.7C3459.24 2576.7 3454.07 2581.78 3448.19 2587.99ZM446.673 2596.54C415.482 2603.62 382.582 2621.59 360.179 2643.8C335.082 2668.68 325.169 2693.79 327.172 2727.42C330.494 2783.21 367.996 2833.74 416.697 2848.04C429.982 2851.94 457.88 2852.42 473.894 2849.03C503.247 2842.8 537.355 2824.66 558.515 2804.02C582.364 2780.76 592.961 2756.31 593.007 2724.44C593.085 2671.41 557.758 2617.23 511.616 2599.6C496.302 2593.75 465.368 2592.29 446.673 2596.54ZM3457.85 2605.53C3450.26 2614.33 3437.22 2635.67 3431.83 2648.11C3426.81 2659.67 3425.95 2664.5 3425.86 2681.54C3425.76 2700.19 3426.24 2702.47 3433.28 2717.19C3447.25 2746.39 3478.14 2773.61 3520.11 2793.72C3573.13 2819.11 3603.31 2823.2 3631.99 2808.88C3651.43 2799.18 3669.28 2771.58 3674.55 2743.07C3680 2713.59 3664.65 2685.8 3632.44 2666.83C3593.57 2643.94 3561.9 2644.86 3538.64 2669.54C3523.62 2685.48 3518.05 2698.08 3518.05 2716.14C3518.05 2728.38 3519 2732.45 3523.81 2740.62C3526.99 2746.02 3529.58 2750.82 3529.58 2751.3C3529.58 2751.77 3525.91 2753.37 3521.43 2754.85C3513.45 2757.49 3512.98 2757.34 3498.37 2747.9C3479.1 2735.44 3465.94 2721.56 3457.89 2705.21C3451.9 2693.04 3451.51 2690.89 3452.4 2674.77C3453.49 2655.05 3458.35 2643.38 3472.74 2625.97C3477.47 2620.25 3481.34 2615.08 3481.33 2614.48C3481.33 2613.33 3463.8 2601.86 3462.04 2601.86C3461.48 2601.86 3459.59 2603.51 3457.85 2605.53ZM1874.63 2620C1868.28 2620.45 1833.36 2623.71 1797.02 2627.24C1760.68 2630.78 1706.4 2634.77 1676.41 2636.11L1621.87 2638.56L1621.25 2653.99L1620.63 2669.42L1657.96 2668.04C1698.82 2666.53 1749.98 2662.83 1821.14 2656.23C1846.52 2653.88 1882.15 2651.83 1900.32 2651.66L1933.36 2651.37V2636.05V2620.73L1920.25 2620.72C1913.04 2620.71 1902.42 2620.36 1896.65 2619.94C1890.88 2619.53 1880.97 2619.56 1874.63 2620ZM2084.9 2620.17L2067.6 2620.9V2636.11V2651.31L2101.68 2651.62C2120.43 2651.79 2151.34 2653.43 2170.38 2655.27C2231.05 2661.12 2304.51 2666.54 2342.9 2668L2380.13 2669.41V2653.77V2638.13L2336.61 2636.68C2312.67 2635.88 2258.16 2632.04 2215.48 2628.14C2129.11 2620.25 2110.11 2619.09 2084.9 2620.17ZM452.795 2634.41C382.318 2654.05 341.187 2707.15 358.003 2756.79C366.801 2782.75 381.374 2799.78 403.562 2810.01C412.242 2814.02 417.148 2814.67 437.815 2814.58C459.709 2814.48 463.57 2813.85 479.646 2807.76C544.791 2783.1 577.649 2735.24 561.724 2688.22C556.531 2672.89 545.108 2654.76 536.751 2648.59C533.561 2646.23 525.804 2641.64 519.516 2638.39C509.456 2633.19 505.435 2632.41 486.058 2631.88C471.235 2631.47 460.359 2632.3 452.795 2634.41ZM452.493 2654.01C421.626 2663.89 390.316 2687.21 378.897 2708.84C371.826 2722.24 371.912 2745.42 379.092 2760.17C393.699 2790.19 420.359 2801.65 457.653 2793.94C490.534 2787.14 524.122 2765.21 538.496 2741.17C545.274 2729.82 545.836 2727.59 545.798 2712.03C545.762 2697.85 544.86 2693.46 540.124 2684.42C532.814 2670.47 523.308 2661.12 510.224 2655.03C496.906 2648.83 470.146 2648.36 452.493 2654.01ZM1411.07 2687.83V2717.19H1440.44H1469.8V2687.83V2658.48H1440.44H1411.07V2687.83ZM2533.25 2687.83V2717.19H2562.62H2591.98V2687.83V2658.48H2562.62H2533.25V2687.83ZM3556.88 2692.4C3536.02 2703.19 3527.87 2728.8 3538.6 2749.84C3551.08 2774.29 3594.79 2794.28 3618.61 2786.42C3628.68 2783.1 3639.91 2773.19 3645.07 2763.08C3650.39 2752.65 3650.4 2736.23 3645.11 2726.01C3629.93 2696.77 3583 2678.89 3556.88 2692.4ZM3560.03 2713.59C3544.2 2729.42 3553.92 2750.86 3582.45 2763.03C3597.1 2769.28 3605.79 2770.13 3615.47 2766.26C3625.54 2762.23 3630.26 2754.71 3630.26 2742.7C3630.26 2726.55 3605.27 2708.65 3580.48 2707.06C3567.85 2706.25 3567.15 2706.47 3560.03 2713.59ZM3332.41 2841.52C3306.31 2848.95 3279.42 2870.04 3261.64 2897.02C3249.34 2915.69 3243.9 2931.24 3242.77 2950.98C3241.4 2975.05 3246.73 2988.37 3265.1 3006.74C3285.84 3027.47 3309.97 3035.1 3335.83 3029.08L3348.69 3026.1L3349.67 3041.42C3353.42 3099.83 3420.43 3134.12 3471.87 3103.95C3495.9 3089.85 3524.38 3054.22 3534.04 3026.18C3541.62 3004.15 3540.98 2982.63 3532.2 2963.95C3523.47 2945.38 3507.39 2929.6 3486.85 2919.46C3471.59 2911.92 3470.92 2911.79 3451.67 2912.75C3440.88 2913.29 3430.06 2914.4 3427.64 2915.22C3423.6 2916.59 3423.13 2915.76 3422.05 2905.28C3420.51 2890.42 3414.24 2878.45 3400.33 2863.88C3381.02 2843.63 3355.04 2835.08 3332.41 2841.52ZM687.222 2861.42C681.922 2865.7 665.536 2878.64 650.811 2890.17C532.743 2982.65 526.157 2988.63 513.532 3014.93C506.396 3029.8 505.989 3031.8 506.052 3051.63C506.11 3069.81 506.92 3074.54 512.137 3087.27C519.18 3104.45 527.363 3117.74 542.41 3136.44C573.125 3174.6 608.732 3191.48 644.867 3185.03C668.932 3180.73 686.593 3170.79 725.28 3139.8C733.989 3132.82 750.828 3119.56 762.704 3110.34C774.578 3101.11 791.996 3087.43 801.41 3079.93C810.826 3072.44 823.898 3062.22 830.459 3057.24C848.94 3043.18 848.745 3044.53 834.798 3027.14C828.03 3018.69 817.917 3005.89 812.33 2998.68C805.81 2990.28 801.339 2986.21 799.853 2987.33C797.118 2989.41 744.193 3030.84 719.212 3050.46C709.584 3058.02 694.01 3070.35 684.602 3077.87C652.862 3103.21 636.896 3111.39 619.159 3111.39C609.825 3111.39 606.593 3110.28 599.017 3104.51C584.084 3093.12 577.699 3082.23 577.603 3067.97C577.546 3059.5 578.868 3053.28 581.968 3047.43C586.874 3038.18 607.042 3017.76 623.675 3005.2C661.28 2976.81 741.957 2912.28 741.957 2910.6C741.957 2909.07 698.486 2853.41 697.406 2853.55C697.106 2853.59 692.523 2857.13 687.222 2861.42ZM3337.66 2859.57C3312.86 2865.95 3285.72 2890.52 3271.28 2919.66C3262.92 2936.51 3262.15 2939.43 3262.15 2953.96C3262.15 2972.28 3266.01 2982.1 3277.88 2993.96C3296.98 3013.06 3322.3 3016.46 3350.22 3003.68C3360.22 2999.1 3361.3 2998.99 3365.16 3002.12C3368.92 3005.18 3369.24 3007.51 3368.47 3026.6C3367.73 3044.92 3368.23 3049.11 3372.28 3058.52C3377.74 3071.21 3391.47 3084.68 3405.46 3091.08C3419.72 3097.61 3443.15 3097.42 3456.86 3090.67C3470.7 3083.86 3489.83 3065.68 3501.3 3048.43C3531.83 3002.53 3523.66 2959.36 3480.28 2937.35C3461.6 2927.86 3447.67 2927.88 3426.99 2937.41C3413.16 2943.78 3411.93 2944 3407.24 2940.93C3402.54 2937.85 3402.3 2936.72 3403.25 2922.01C3404.12 2908.49 3403.54 2904.82 3399.02 2894.94C3387.34 2869.43 3360.17 2853.77 3337.66 2859.57ZM666.446 2901.94C652.025 2913.49 621.821 2937.38 599.325 2955.03C535.64 3005 524.764 3019.13 524.976 3051.63C525.055 3063.89 526.356 3071.62 529.811 3080.37C541.129 3109.03 573.659 3147.26 596.055 3158.23C632.395 3176.02 655.816 3169.83 708.397 3128.56C723.971 3116.33 755.354 3091.77 778.14 3073.97C800.925 3056.18 819.566 3040.89 819.566 3040C819.566 3039.11 815.149 3032.87 809.752 3026.13C804.355 3019.4 799.679 3013.54 799.365 3013.11C798.752 3012.28 797.722 3013.04 771.314 3033.8C751.658 3049.26 742.692 3056.28 698.272 3091C660.493 3120.53 644.581 3128.78 623.279 3129.9C603.805 3130.92 590.27 3125.36 577.406 3111.06C563.283 3095.36 558.402 3083.79 558.53 3066.3C558.662 3048.4 563.434 3037.51 578.589 3020.51C588.768 3009.1 596.422 3002.72 658.243 2954.13C673.649 2942.02 691.944 2927.55 698.899 2921.98C705.852 2916.41 712.852 2911.11 714.452 2910.2C716.684 2908.94 714.769 2905.32 706.209 2894.65C700.076 2887 694.519 2880.78 693.863 2880.84C693.204 2880.89 680.867 2890.39 666.446 2901.94ZM3323.26 2894.29C3305.58 2900.59 3291.64 2921.99 3291.56 2942.94C3291.52 2953.96 3292.44 2957.17 3297.8 2964.77C3306.26 2976.74 3317.64 2982.45 3332.81 2982.36C3342.49 2982.3 3347.84 2980.72 3361.08 2973.97C3380.78 2963.94 3383.27 2960.12 3382.13 2941.53C3380.72 2918.54 3367.42 2899.97 3348.33 2894.3C3335.81 2890.59 3333.66 2890.59 3323.26 2894.29ZM3320.14 2919.49C3306.75 2934.74 3306.69 2951.03 3319.98 2960.03C3328.6 2965.87 3336.5 2965.02 3352.34 2956.57C3364.59 2950.04 3366.35 2944.42 3360.74 2929.73C3356.22 2917.91 3348.15 2912.19 3335.98 2912.19C3327.85 2912.19 3325.68 2913.19 3320.14 2919.49ZM3423.63 2968.38C3409.05 2973.42 3393.77 2982.72 3392.26 2987.47C3390.39 2993.37 3390.33 3017.01 3392.17 3025.42C3395.68 3041.46 3412.4 3057.17 3430.39 3061.32C3459.39 3068.01 3490.22 3042.06 3490.47 3010.74C3490.73 2977.47 3457.77 2956.58 3423.63 2968.38ZM3429.95 2986.27C3410.2 2994.01 3408.47 2996.46 3409.79 3014.86C3411.44 3037.71 3437.49 3049.94 3456.71 3036.89C3487.87 3015.72 3465.03 2972.51 3429.95 2986.27ZM3135.57 3055.99C3123.86 3068.3 3114.27 3079.9 3114.27 3081.77C3114.27 3083.64 3111.93 3109.18 3109.08 3138.53C3106.23 3167.87 3104.11 3192.02 3104.37 3192.19C3105.05 3192.64 3163.13 3199.52 3165.96 3199.48C3167.51 3199.46 3168.88 3191.35 3169.85 3176.39C3170.69 3163.65 3172.29 3153.32 3173.43 3153.32C3174.57 3153.32 3194.99 3172.44 3218.82 3195.82C3242.65 3219.19 3274.2 3250.06 3288.93 3264.42L3315.71 3290.52L3340.84 3265.46C3354.66 3251.68 3365.97 3239.33 3365.97 3238.02C3365.97 3236.71 3357.72 3227.87 3347.62 3218.37C3337.53 3208.87 3310.39 3182.58 3287.32 3159.96C3237.31 3110.92 3177.31 3052.65 3165.42 3041.56L3156.88 3033.6L3135.57 3055.99ZM3145.05 3073.27L3133.16 3085.29L3128.74 3129.92C3126.31 3154.47 3124.71 3174.94 3125.19 3175.42C3125.66 3175.89 3131.66 3176.54 3138.51 3176.86L3150.98 3177.43L3152.6 3155.42C3155.16 3120.6 3156.42 3111.1 3158.4 3111.79C3159.41 3112.14 3189.3 3140.76 3224.83 3175.37C3260.35 3209.99 3295.34 3243.89 3302.59 3250.72L3315.77 3263.12L3327.24 3251.8C3333.55 3245.58 3338.71 3239.39 3338.71 3238.06C3338.71 3236.72 3330.34 3227.73 3320.12 3218.07C3309.9 3208.4 3270.18 3169.83 3231.85 3132.35C3193.53 3094.87 3161 3063.54 3159.56 3062.73C3157.94 3061.82 3152.4 3065.85 3145.05 3073.27ZM875.948 3160.11C854.744 3185.71 813.477 3235.37 784.246 3270.46C755.012 3305.56 730.66 3335.41 730.125 3336.8C729.366 3338.79 756.82 3363.34 779.826 3381.26C782.601 3383.42 791.241 3373.97 838.553 3316.99C869.066 3280.24 894.264 3250.4 894.551 3250.67C895.065 3251.16 890.278 3272.75 865.611 3381.19C858.744 3411.38 853.127 3437.44 853.127 3439.11C853.127 3440.78 866.962 3453.73 883.87 3467.9L914.616 3493.67L922.15 3485.4C926.295 3480.85 958.475 3442.36 993.662 3399.88C1028.85 3357.4 1067.76 3310.52 1080.14 3295.72L1102.64 3268.81L1085.66 3254.57C1076.31 3246.74 1064.48 3236.8 1059.36 3232.48C1054.23 3228.15 1049.21 3224.61 1048.19 3224.61C1047.17 3224.61 1036.34 3236.64 1024.12 3251.35C1011.9 3266.05 987.541 3295.34 969.989 3316.43C952.437 3337.52 937.79 3353.42 937.441 3351.77C937.091 3350.11 942.06 3326.25 948.485 3298.74C954.907 3271.23 961.703 3241.65 963.583 3233C965.464 3224.35 969.615 3205.95 972.808 3192.11C976.969 3174.07 977.985 3166.19 976.395 3164.28C973.995 3161.38 920.709 3117.25 916.85 3114.96C915.451 3114.13 898.893 3132.41 875.948 3160.11ZM878.096 3187.39C777.37 3308.46 756.64 3333.73 756.64 3335.46C756.64 3336.49 761.901 3341.82 768.332 3347.32C778.217 3355.76 780.449 3356.85 782.788 3354.38C784.311 3352.78 813.653 3317.5 847.996 3275.98C882.337 3234.47 910.84 3200.62 911.335 3200.77C911.83 3200.92 914.849 3202.97 918.041 3205.33L923.847 3209.62L915.851 3244.9C893.838 3342 878.314 3411.4 876.153 3422.36C873.41 3436.28 871.616 3433.62 898.066 3454.85L912.59 3466.51L920.766 3457.3C927.994 3449.16 952.837 3419.34 1039.35 3315.01C1052.36 3299.31 1065.82 3283.03 1069.25 3278.82L1075.48 3271.17L1063.1 3260.44L1050.71 3249.72L1038.44 3264.07C1031.69 3271.97 1002.19 3307.38 972.871 3342.76C922.673 3403.35 919.319 3406.93 915.304 3404.26C906.287 3398.28 906.356 3397.48 921.838 3330.22C930.029 3294.62 941.087 3246.16 946.41 3222.52C951.734 3198.87 956.527 3178.06 957.062 3176.26C957.712 3174.07 951.484 3167.66 938.23 3156.86C927.34 3148 918.085 3140.74 917.67 3140.74C917.253 3140.74 899.444 3161.74 878.096 3187.39ZM1182.69 3345.7C1178.19 3354.64 1155.05 3399.56 1131.28 3445.53C1107.5 3491.5 1088.05 3529.41 1088.05 3529.78C1088.05 3530.15 1081.44 3542.72 1073.37 3557.71C1065.29 3572.7 1058.69 3585.8 1058.69 3586.81C1058.69 3589.47 1143.04 3632.21 1164.99 3640.67C1211.64 3658.65 1252.51 3658.9 1286.07 3641.4C1303.25 3632.44 1329.59 3605.62 1342.42 3584.03C1347.92 3574.77 1355.92 3557.35 1360.18 3545.3C1367.48 3524.7 1367.94 3521.92 1367.93 3498.25C1367.93 3474.73 1367.48 3472.01 1361.19 3456.7C1352.75 3436.16 1345.94 3426.39 1327.87 3408.86C1309.54 3391.09 1289.87 3378.07 1250.61 3357.7C1233.31 3348.73 1214.06 3338.7 1207.84 3335.42C1201.62 3332.14 1195.26 3329.45 1193.7 3329.45C1192.15 3329.45 1187.19 3336.76 1182.69 3345.7ZM1196.52 3361.22C1194.46 3364.84 1183.25 3386.3 1171.61 3408.91C1141.55 3467.29 1121.68 3505.71 1101.22 3545.03C1091.43 3563.84 1083.79 3579.6 1084.24 3580.06C1087.6 3583.42 1169.56 3623.07 1180.52 3626.64C1203.51 3634.13 1228.56 3636.76 1247.23 3633.64C1271.25 3629.63 1283.67 3622.87 1303.31 3603.11C1317.56 3588.78 1322.14 3582.37 1331.14 3564.12C1342.45 3541.18 1350.24 3515.14 1350.24 3500.29C1350.24 3459.21 1324.47 3421.81 1276.86 3393.78C1257.71 3382.5 1204.37 3354.61 1201.98 3354.63C1201.04 3354.64 1198.58 3357.6 1196.52 3361.22ZM2762.71 3365.28C2735.04 3369.91 2711.8 3379.97 2637.53 3419.47L2612.82 3432.62L2624.19 3453.9C2630.44 3465.6 2639.56 3482.73 2644.44 3491.95C2649.33 3501.18 2655.93 3513.45 2659.1 3519.21C2662.28 3524.98 2669.12 3537.72 2674.32 3547.52C2687.84 3573.05 2713.63 3621.21 2724.37 3640.98C2729.43 3650.29 2737.34 3665.14 2741.96 3673.99C2746.57 3682.83 2751.2 3690.07 2752.24 3690.09C2753.29 3690.09 2759.89 3686.9 2766.93 3682.99C2773.96 3679.09 2793.34 3668.62 2809.99 3659.73C2875.14 3624.97 2902.02 3600.39 2917.44 3561.45C2923.67 3545.72 2924.2 3542.48 2924.22 3520.26C2924.24 3499.4 2923.44 3493.75 2918.32 3478.33C2890.98 3395.9 2832.71 3353.58 2762.71 3365.28ZM2774.47 3383.31C2760.64 3385.02 2740.47 3390.3 2726.53 3395.86C2715.19 3400.38 2643.75 3436.88 2640.33 3439.9C2638.98 3441.09 2657.34 3476.67 2690.76 3537.62C2697.58 3550.06 2703.15 3560.64 2703.15 3561.14C2703.15 3561.65 2710.23 3574.83 2718.88 3590.44C2727.54 3606.04 2734.62 3619.28 2734.62 3619.84C2734.62 3620.72 2757.33 3662.47 2759.01 3664.67C2760.04 3666.03 2827.3 3629.01 2843.42 3618.22C2881.6 3592.63 2903.74 3560.5 2906.01 3527.36C2906.89 3514.52 2906.15 3506.76 2902.79 3493.48C2893.99 3458.68 2869.47 3419.17 2845.98 3401.94C2827.79 3388.59 2796.88 3380.54 2774.47 3383.31ZM1216.83 3399.17C1199.91 3432.42 1140.34 3547.61 1133.87 3559.61L1125.66 3574.85L1151.43 3587.45C1180.65 3601.73 1195.93 3605.24 1219.56 3603.08C1277.35 3597.8 1322.33 3531.33 1307.26 3473.49C1299.29 3442.89 1281.96 3423 1246.88 3404.19C1234.74 3397.68 1223.8 3392.36 1222.56 3392.36C1221.32 3392.36 1218.74 3395.42 1216.83 3399.17ZM2732.52 3420.22C2717.97 3425.22 2682.18 3443.95 2682.18 3446.56C2682.18 3447.43 2683 3449.03 2684 3450.12C2685 3451.22 2692.69 3465.33 2701.08 3481.47C2709.46 3497.62 2717.03 3511.77 2717.88 3512.92C2719.35 3514.91 2744.02 3561.03 2766.67 3604.13C2772.43 3615.09 2777.79 3624.79 2778.6 3625.69C2781.36 3628.8 2826.69 3601.71 2838.29 3590.02C2869.45 3558.62 2875.16 3517.24 2854.43 3472.97C2847.28 3457.7 2828.62 3436.7 2815.2 3428.84C2790.88 3414.59 2758.66 3411.23 2732.52 3420.22ZM1223.09 3428.53C1220.03 3434.58 1210.7 3452.74 1202.34 3468.89C1160.4 3549.94 1153.07 3564.37 1153.07 3565.93C1153.07 3569.09 1183.41 3581.57 1196.62 3583.85C1206.39 3585.54 1212.81 3585.48 1221.73 3583.61C1249.35 3577.82 1268.32 3562.12 1282.59 3533.26C1290.03 3518.22 1290.46 3516.23 1290.46 3497.31C1290.46 3480.1 1289.7 3475.65 1285.02 3465.74C1277.09 3448.97 1262.66 3434.08 1245.66 3425.15C1237.66 3420.95 1230.56 3417.52 1229.89 3417.52C1229.21 3417.52 1226.15 3422.47 1223.09 3428.53ZM2737.76 3438.31C2731.99 3440.44 2722.77 3444.74 2717.27 3447.87L2707.27 3453.57L2713.4 3464.37C2719.85 3475.75 2737.96 3509.49 2767.61 3565.34C2777.4 3583.79 2786.02 3599.55 2786.76 3600.36C2787.5 3601.17 2795.62 3597.29 2804.8 3591.74C2850.9 3563.84 2860.97 3515.3 2830.15 3469.54C2819.98 3454.46 2807.48 3444.46 2790.9 3438.16C2777.32 3433 2751.96 3433.07 2737.76 3438.31ZM3012.54 3451.41C2999.85 3460.47 2986.72 3470.03 2983.36 3472.66L2977.25 3477.43L2997.8 3506.71C3009.1 3522.81 3018.65 3536.34 3019.02 3536.77C3019.4 3537.21 3028.95 3530.99 3040.24 3522.97C3051.54 3514.94 3064.77 3505.62 3069.65 3502.26C3074.53 3498.9 3078.54 3495.4 3078.57 3494.49C3078.59 3493.57 3075.73 3488.86 3072.21 3484C3068.7 3479.15 3060.15 3467.16 3053.22 3457.36C3046.3 3447.55 3039.5 3438.5 3038.12 3437.24C3036.25 3435.53 3029.7 3439.16 3012.54 3451.41ZM3017.37 3471.76L3003.33 3481.81L3013.18 3495.75C3018.59 3503.42 3023.73 3509.71 3024.58 3509.73C3025.44 3509.76 3032.21 3505.41 3039.64 3500.07L3053.14 3490.37L3043.33 3476.05C3037.93 3468.17 3033.04 3461.73 3032.47 3461.72C3031.89 3461.72 3025.1 3466.24 3017.37 3471.76ZM1494.07 3472.34C1493.56 3473.9 1489.43 3487.92 1484.9 3503.49C1480.36 3519.06 1469.79 3555.38 1461.39 3584.21C1453 3613.05 1440.66 3655.03 1433.98 3677.52C1419.67 3725.64 1413.18 3749.52 1414.13 3750.48C1414.82 3751.16 1475.13 3769.2 1548.15 3790.56C1568.74 3796.58 1585.93 3801.17 1586.36 3800.74C1587.09 3800.01 1602.11 3747.74 1602.71 3743.83C1602.96 3742.19 1568.73 3731.38 1518.55 3717.25C1505.21 3713.5 1501.44 3711.62 1502.12 3709.1C1511.3 3675.23 1514.75 3663.31 1516.18 3660.48C1517.76 3657.38 1519.6 3657.52 1536.33 3662.02C1546.47 3664.75 1567.02 3670.72 1582.02 3675.29C1597.02 3679.86 1609.89 3682.94 1610.63 3682.14C1612.19 3680.43 1627.12 3629.73 1627.12 3626.12C1627.12 3624.15 1590.54 3612.55 1542.73 3599.36C1533.78 3596.89 1533.79 3598.38 1542.59 3568.8C1548.79 3547.93 1541.88 3548.24 1603.3 3566.09C1627.7 3573.17 1648.52 3578.97 1649.58 3578.97C1650.63 3578.97 1652.71 3574.02 1654.2 3567.96C1655.69 3561.91 1659.23 3549.17 1662.06 3539.66C1664.9 3530.15 1666.7 3521.53 1666.07 3520.5C1665.44 3519.48 1657.12 3516.56 1647.59 3514.04C1638.06 3511.51 1616.58 3505.33 1599.85 3500.31C1583.12 3495.29 1553.95 3486.79 1535.03 3481.42C1516.11 3476.05 1499.36 3471.17 1497.81 3470.58C1496.27 3469.99 1494.59 3470.78 1494.07 3472.34ZM1506.76 3496.8C1505.82 3500.13 1496.08 3533.49 1461.02 3653.41C1452.93 3681.09 1444.09 3711.25 1441.37 3720.43C1438.66 3729.62 1436.81 3737.5 1437.27 3737.96C1437.72 3738.41 1457.26 3744.28 1480.69 3751.01C1504.12 3757.74 1534.14 3766.56 1547.41 3770.61C1560.67 3774.65 1572.11 3777.3 1572.82 3776.49C1574.86 3774.17 1578.87 3761.16 1578.87 3756.89C1578.87 3754.75 1577.54 3753.01 1575.92 3753.01C1572.62 3753.01 1479.75 3725.88 1478.36 3724.51C1476.88 3723.05 1504.15 3633.49 1506.07 3633.49C1507.5 3633.49 1585.07 3656.33 1595.01 3659.68C1596.98 3660.35 1604.04 3642.7 1604.04 3637.11C1604.04 3636.57 1599.56 3634.95 1594.08 3633.51C1560.27 3624.6 1511.75 3609.52 1511.75 3607.92C1511.75 3606.26 1534.83 3528.17 1535.6 3527.24C1535.76 3527.04 1558.54 3533.41 1586.22 3541.38C1613.91 3549.35 1636.72 3555.88 1636.91 3555.89C1637.89 3555.93 1644.2 3534.54 1643.44 3533.78C1642.54 3532.88 1592.52 3517.82 1550.56 3505.82C1537.87 3502.19 1523.05 3497.88 1517.62 3496.24C1508.63 3493.53 1507.67 3493.58 1506.76 3496.8ZM2335.04 3519.81C2317.73 3523.94 2303.42 3527.38 2303.24 3527.46C2303.05 3527.54 2299.1 3553.55 2294.45 3585.26C2289.8 3616.98 2279.61 3686.53 2271.81 3739.82C2264 3793.11 2258.06 3837.16 2258.6 3837.7C2259.89 3838.99 2330.28 3822.61 2332.06 3820.6C2332.81 3819.75 2335.11 3806.32 2337.17 3790.75C2342.02 3754.03 2342.13 3753.76 2353.26 3751.93C2358.23 3751.11 2378.14 3746.77 2397.49 3742.29C2416.85 3737.8 2433.84 3734.14 2435.25 3734.15C2436.66 3734.16 2445.37 3745.67 2454.6 3759.71C2463.82 3773.76 2471.98 3786.15 2472.73 3787.24C2473.54 3788.45 2481.41 3787.5 2492.65 3784.84C2502.87 3782.43 2520.43 3778.45 2531.68 3775.99C2542.93 3773.54 2552.13 3770.79 2552.13 3769.89C2552.13 3768.99 2550.41 3766 2548.31 3763.25C2544.73 3758.57 2538.06 3748.85 2490.23 3678.57C2470.45 3649.5 2450.89 3620.87 2426.49 3585.26C2418.19 3573.15 2403.66 3551.72 2394.19 3537.62C2379.66 3515.98 2376.17 3512.02 2371.74 3512.16C2368.86 3512.24 2352.34 3515.69 2335.04 3519.81ZM2341.65 3538.2C2330.29 3540.85 2320.59 3543.44 2320.09 3543.94C2319.58 3544.44 2317.76 3555.6 2316.04 3568.73C2314.32 3581.86 2307.33 3629.87 2300.52 3675.42C2286.97 3766.02 2280.81 3811.68 2281.98 3812.85C2283.22 3814.08 2311.78 3807.24 2313.97 3805.18C2315.08 3804.15 2317.91 3788.98 2320.28 3771.48L2324.57 3739.65L2363.36 3730.7C2384.7 3725.78 2411.88 3719.46 2423.77 3716.66L2445.37 3711.58L2462.27 3737.01C2471.56 3751 2480.24 3763.56 2481.56 3764.92C2483.4 3766.83 2488.08 3766.43 2501.79 3763.16C2511.6 3760.83 2519.94 3758.6 2520.34 3758.22C2520.73 3757.83 2513.73 3746.83 2504.78 3733.77C2486.63 3707.3 2460.93 3669.66 2427.71 3620.91C2377.66 3547.46 2367.2 3532.85 2364.81 3533.1C2363.43 3533.25 2353.01 3535.54 2341.65 3538.2ZM1770.85 3543.72C1770.09 3545.9 1746.68 3825.3 1746.68 3832.23C1746.68 3833.24 1767.25 3835.77 1792.4 3837.85C1844.78 3842.18 1891.19 3841.47 1911.33 3836.02C1958.05 3823.4 1991.58 3789.73 2003.39 3743.57C2014.9 3698.6 2011.43 3653.51 1993.95 3620.94C1979.6 3594.2 1958.77 3576.66 1926.52 3564.19C1902.44 3554.87 1878.09 3550.4 1830.58 3546.58C1808.08 3544.78 1785.66 3542.77 1780.75 3542.13C1774.42 3541.31 1771.53 3541.77 1770.85 3543.72ZM1787.73 3564.63C1787.23 3566.18 1784.34 3599.52 1781.32 3638.73C1778.3 3677.94 1773.95 3733.49 1771.65 3762.18C1769.36 3790.87 1767.91 3814.78 1768.45 3815.31C1771.16 3818.02 1840.82 3822.4 1866.24 3821.47C1912.04 3819.79 1937.08 3810.36 1959.27 3786.46C1979.27 3764.91 1987.54 3741.3 1989.36 3700.59C1991.38 3655.46 1983.65 3631.23 1959.59 3607.27C1946.31 3594.04 1925.84 3582.5 1903.99 3575.94C1891.98 3572.33 1855.71 3567.59 1823.24 3565.38C1812.85 3564.67 1800.82 3563.59 1796.5 3562.96C1790.99 3562.17 1788.37 3562.67 1787.73 3564.63ZM2351.82 3572.2C2349.51 3572.69 2346.81 3573.86 2345.81 3574.8C2343.96 3576.55 2327.46 3711.45 2328.92 3712.96C2329.36 3713.42 2350.27 3708.93 2375.38 3702.98C2400.49 3697.03 2422.63 3692.17 2424.58 3692.18C2426.53 3692.19 2428.72 3691.25 2429.44 3690.08C2430.16 3688.91 2422.3 3674.53 2411.97 3658.1C2368.52 3589.02 2358.73 3573.67 2357.41 3572.52C2356.64 3571.85 2354.12 3571.71 2351.82 3572.2ZM1821.31 3591.97C1819.74 3597.11 1804.73 3792.86 1805.82 3793.95C1806.42 3794.55 1817.81 3796.08 1831.14 3797.35C1861.21 3800.21 1875.93 3797.98 1897.61 3787.31C1932.2 3770.28 1952.24 3735.69 1952.24 3693.03C1952.24 3653.22 1929.31 3616.2 1895.6 3601.56C1876.47 3593.26 1823.02 3586.35 1821.31 3591.97ZM1838.21 3616.19C1837.61 3619.36 1836.62 3629.98 1836.01 3639.78C1835.4 3649.58 1832.82 3684.24 1830.26 3716.81C1827.71 3749.37 1826.33 3776.72 1827.2 3777.59C1828.07 3778.46 1838.39 3779.18 1850.13 3779.19C1869.75 3779.21 1872.61 3778.68 1885.4 3772.62C1901.17 3765.15 1916.13 3751.53 1922.7 3738.66C1939.44 3705.86 1935.35 3662.5 1913.21 3637.88C1898.31 3621.31 1872.64 3610.42 1848.47 3610.42C1840.13 3610.42 1839.2 3610.95 1838.21 3616.19ZM2358.34 3614.79C2356.33 3621.02 2350.29 3686.13 2351.59 3687.44C2352.7 3688.54 2380.15 3683.04 2397.54 3678.22C2401.92 3677.01 2403.37 3679.88 2378.11 3639.78C2360.59 3611.95 2359.64 3610.76 2358.34 3614.79ZM2631.84 3657.55C2627.8 3659.13 2613.64 3664.44 2600.37 3669.34C2587.11 3674.25 2575.4 3678.99 2574.36 3679.89C2573.25 3680.84 2573.85 3685.28 2575.8 3690.53C2577.64 3695.49 2583.12 3710.39 2587.99 3723.65C2592.86 3736.91 2597.15 3748.14 2597.52 3748.6C2597.89 3749.06 2613.64 3743.56 2632.51 3736.38L2666.81 3723.31L2654.04 3688.95C2647.02 3670.04 2640.8 3654.6 2640.23 3654.62C2639.65 3654.65 2635.87 3655.97 2631.84 3657.55ZM2616.11 3683.97C2610.34 3686.23 2603.56 3688.96 2601.03 3690.04L2596.45 3691.99L2601.86 3706.25C2604.83 3714.09 2608.02 3721.36 2608.96 3722.4C2609.94 3723.49 2617.33 3721.85 2626.56 3718.49C2644.3 3712.02 2643.66 3713.94 2635.08 3692.84C2632.39 3686.23 2629.38 3680.6 2628.39 3680.34C2627.4 3680.08 2621.87 3681.71 2616.11 3683.97Z" fill="#B31B1B"/>
</svg>
